<?xml version="1.0" standalone="no"?>
<!DOCTYPE svg PUBLIC "-//W3C//DTD SVG 20010904//EN"
 "http://www.w3.org/TR/2001/REC-SVG-20010904/DTD/svg10.dtd">
<svg version="1.0" xmlns="http://www.w3.org/2000/svg"
 width="26.000000pt" height="29.000000pt" viewBox="0 0 26.000000 29.000000"
 preserveAspectRatio="xMidYMid meet">

<g transform="translate(0.000000,29.000000) scale(0.100000,-0.100000)"
fill="#000000" stroke="none">
<path d="M100 275 c0 -10 10 -15 30 -15 20 0 30 5 30 15 0 10 -10 15 -30 15
-20 0 -30 -5 -30 -15z"/>
<path d="M81 219 c-17 -48 -16 -49 49 -49 65 0 66 1 49 49 -10 27 -15 31 -49
31 -34 0 -39 -4 -49 -31z"/>
<path d="M57 153 c-16 -15 -5 -24 25 -21 41 4 50 28 11 28 -17 0 -33 -3 -36
-7z"/>
<path d="M146 146 c4 -10 18 -16 36 -16 40 0 32 24 -10 28 -25 3 -31 0 -26
-12z"/>
<path d="M47 113 c-4 -3 -7 -12 -7 -20 0 -10 22 -13 91 -13 81 0 90 2 87 17
-4 23 -34 28 -65 12 -19 -10 -28 -10 -43 -1 -22 13 -53 16 -63 5z"/>
<path d="M20 57 c0 -10 24 -13 110 -13 74 0 109 3 107 10 -2 7 -46 12 -110 14
-85 2 -107 0 -107 -11z"/>
<path d="M10 20 c0 -13 57 -13 65 0 4 6 -8 10 -29 10 -20 0 -36 -4 -36 -10z"/>
<path d="M185 20 c3 -5 19 -10 36 -10 16 0 29 5 29 10 0 6 -16 10 -36 10 -21
0 -33 -4 -29 -10z"/>
</g>
</svg>
