<svg width="200" height="153" viewBox="0 0 200 153" fill="none" xmlns="http://www.w3.org/2000/svg">
<g clip-path="url(#clip0_512_963)">
<path d="M28.5685 90.099C35.5678 90.099 41.2418 84.425 41.2418 77.4257C41.2418 70.4265 35.5678 64.7524 28.5685 64.7524C21.5693 64.7524 15.8953 70.4265 15.8953 77.4257C15.8953 84.425 21.5693 90.099 28.5685 90.099Z" fill="#FF6584"/>
<path d="M54.5222 149.01H54.5093C54.0631 149.01 53.6353 148.832 53.3197 148.516C53.0042 148.201 52.8267 147.773 52.8262 147.327V48.515C52.8267 48.0687 53.0042 47.6409 53.3197 47.3253C53.6353 47.0098 54.0631 46.8323 54.5093 46.8318H137.678C138.124 46.8323 138.552 47.0098 138.867 47.3253C139.183 47.6409 139.36 48.0687 139.361 48.515V125.347C139.36 125.791 139.185 126.216 138.872 126.532C138.559 126.847 138.135 127.026 137.691 127.03L54.5222 149.01Z" fill="#F2F2F2"/>
<path d="M115.994 32.8713H77.3806V10.4951C77.3812 10.0226 77.5691 9.56958 77.9032 9.23548C78.2373 8.90137 78.6903 8.71343 79.1628 8.71289H114.212C114.685 8.71343 115.138 8.90137 115.472 9.23548C115.806 9.56958 115.994 10.0226 115.994 10.4951V32.8713ZM77.7767 32.4753H115.598V10.4951C115.598 10.1276 115.452 9.77524 115.192 9.51538C114.932 9.25551 114.58 9.10934 114.212 9.10893H79.1628C78.7953 9.10934 78.443 9.25551 78.1831 9.51538C77.9232 9.77524 77.7771 10.1276 77.7767 10.4951V32.4753Z" fill="#3F3D56"/>
<path d="M88.3705 17.2278H105.004C105.424 17.2278 105.827 17.3947 106.124 17.6918C106.421 17.9889 106.588 18.3918 106.588 18.8119V42.5743H86.7864V18.8119C86.7864 18.3918 86.9533 17.9889 87.2504 17.6918C87.5475 17.3947 87.9504 17.2278 88.3705 17.2278Z" fill="#E6E6E6"/>
<path d="M91.6379 9.10891H83.519V0.990099C83.5193 0.727601 83.6238 0.475939 83.8094 0.290325C83.995 0.10471 84.2466 0.000300307 84.5091 0H90.6478C90.9103 0.000300307 91.1619 0.10471 91.3475 0.290325C91.5331 0.475939 91.6376 0.727601 91.6379 0.990099V9.10891ZM83.9151 8.71287H91.2418V0.990099C91.2416 0.832597 91.179 0.681596 91.0676 0.570225C90.9563 0.458855 90.8053 0.396211 90.6478 0.39604H84.5091C84.3516 0.396211 84.2006 0.458855 84.0893 0.570225C83.9779 0.681596 83.9153 0.832597 83.9151 0.990099V8.71287Z" fill="#3F3D56"/>
<path d="M158.353 128.483C158.274 128.483 158.197 128.483 158.118 128.481C153.219 128.427 148.509 126.586 144.872 123.303C144.737 123.181 144.604 123.057 144.471 122.931L144.41 122.873V84.922L144.429 84.8818C144.56 84.604 144.693 84.33 144.826 84.0561C148.945 75.6938 153.749 71.0891 158.353 71.0891C164.992 71.0891 170.142 80.1968 172.62 85.6257C176.066 93.175 178.474 102.529 178.474 108.374C178.472 113.669 176.383 118.75 172.659 122.514C168.935 126.278 163.877 128.422 158.583 128.481C158.509 128.483 158.43 128.483 158.353 128.483ZM144.806 122.703C144.916 122.807 145.027 122.909 145.138 123.01C148.704 126.228 153.322 128.033 158.125 128.085C158.205 128.087 158.281 128.085 158.358 128.087C158.43 128.087 158.504 128.087 158.575 128.085C169.33 127.966 178.077 119.124 178.077 108.374C178.077 102.58 175.685 93.2933 172.26 85.7901C169.821 80.4477 164.771 71.4851 158.353 71.4851C153.908 71.4851 149.23 76.0114 145.182 84.2301C145.056 84.4885 144.93 84.7479 144.806 85.0107L144.806 122.703Z" fill="#3F3D56"/>
<path d="M158.352 152.493C158.291 152.493 158.233 152.469 158.191 152.426C158.148 152.383 158.124 152.325 158.124 152.265V105.756C158.124 105.726 158.13 105.696 158.141 105.669C158.152 105.641 158.169 105.616 158.19 105.594C158.211 105.573 158.237 105.556 158.264 105.545C158.292 105.533 158.322 105.527 158.352 105.527C158.382 105.527 158.412 105.533 158.439 105.545C158.467 105.556 158.492 105.573 158.513 105.594C158.535 105.616 158.551 105.641 158.563 105.669C158.574 105.696 158.58 105.726 158.58 105.756V152.265C158.58 152.325 158.556 152.383 158.513 152.426C158.47 152.469 158.412 152.493 158.352 152.493Z" fill="#CCCCCC"/>
<path d="M40.1341 152.493C40.0737 152.493 40.0157 152.469 39.973 152.426C39.9303 152.383 39.9063 152.325 39.9063 152.265V105.756C39.9061 105.726 39.9118 105.696 39.9232 105.669C39.9346 105.641 39.9513 105.616 39.9725 105.594C39.9937 105.573 40.0189 105.556 40.0466 105.545C40.0743 105.533 40.104 105.527 40.1341 105.527C40.1641 105.527 40.1938 105.533 40.2216 105.545C40.2493 105.556 40.2745 105.573 40.2956 105.594C40.3168 105.616 40.3336 105.641 40.3449 105.669C40.3563 105.696 40.3621 105.726 40.3619 105.756V152.265C40.3619 152.325 40.3379 152.383 40.2952 152.426C40.2524 152.469 40.1945 152.493 40.1341 152.493Z" fill="#CCCCCC"/>
<path d="M158.352 114.446C158.319 114.446 158.287 114.439 158.257 114.425C158.228 114.412 158.201 114.392 158.18 114.367L146.722 101.153C146.682 101.107 146.663 101.048 146.667 100.988C146.671 100.928 146.699 100.872 146.745 100.832C146.79 100.793 146.85 100.773 146.91 100.777C146.97 100.781 147.026 100.809 147.066 100.855L158.524 114.068C158.553 114.102 158.571 114.142 158.577 114.185C158.584 114.228 158.577 114.273 158.559 114.312C158.541 114.352 158.512 114.386 158.475 114.409C158.438 114.433 158.396 114.446 158.352 114.446Z" fill="#CCCCCC"/>
<path d="M158.352 122.072C158.307 122.072 158.263 122.058 158.225 122.033C158.188 122.008 158.159 121.973 158.141 121.931C158.124 121.889 158.12 121.844 158.128 121.799C158.137 121.755 158.159 121.715 158.191 121.683L164.701 115.172C164.744 115.129 164.802 115.106 164.862 115.106C164.923 115.106 164.981 115.13 165.023 115.172C165.066 115.215 165.09 115.273 165.09 115.333C165.09 115.394 165.066 115.451 165.024 115.494L158.513 122.005C158.492 122.026 158.467 122.043 158.439 122.054C158.411 122.066 158.382 122.072 158.352 122.072Z" fill="#CCCCCC"/>
<path d="M179.43 152.587H162.4V152.389C162.399 151.27 162.619 150.163 163.047 149.129C163.474 148.095 164.102 147.156 164.892 146.365C165.683 145.574 166.622 144.946 167.655 144.518C168.689 144.09 169.796 143.869 170.915 143.869C172.034 143.869 173.141 144.09 174.175 144.518C175.208 144.946 176.147 145.574 176.938 146.365C177.729 147.156 178.356 148.095 178.783 149.129C179.211 150.163 179.431 151.27 179.43 152.389L179.43 152.587ZM162.798 152.191H179.032C178.98 150.072 178.102 148.058 176.586 146.578C175.069 145.098 173.034 144.269 170.915 144.269C168.796 144.269 166.761 145.098 165.244 146.578C163.728 148.058 162.85 150.072 162.798 152.191Z" fill="#3F3D56"/>
<path d="M170.915 147.556C170.856 147.556 170.798 147.579 170.756 147.622C170.714 147.664 170.69 147.721 170.69 147.78V150.168L168.364 148.172C168.342 148.153 168.316 148.138 168.288 148.129C168.26 148.119 168.23 148.116 168.2 148.118C168.171 148.12 168.142 148.128 168.116 148.141C168.089 148.155 168.066 148.173 168.047 148.196C168.027 148.218 168.013 148.244 168.004 148.272C167.994 148.3 167.991 148.33 167.993 148.359C167.995 148.389 168.003 148.418 168.017 148.444C168.03 148.47 168.049 148.494 168.071 148.513L170.69 150.761V152.164C170.69 152.193 170.696 152.223 170.707 152.25C170.719 152.278 170.735 152.302 170.756 152.323C170.777 152.344 170.802 152.361 170.829 152.372C170.856 152.384 170.886 152.389 170.915 152.389C170.945 152.389 170.974 152.384 171.001 152.372C171.029 152.361 171.053 152.344 171.074 152.323C171.095 152.302 171.112 152.278 171.123 152.25C171.134 152.223 171.14 152.193 171.14 152.164V147.78C171.14 147.721 171.116 147.664 171.074 147.622C171.032 147.579 170.975 147.556 170.915 147.556Z" fill="#3F3D56"/>
<path d="M36.6582 152.587H19.6274V152.389C19.6269 151.27 19.8468 150.163 20.2745 149.129C20.7022 148.095 21.3293 147.156 22.1201 146.365C22.9109 145.574 23.8498 144.946 24.8832 144.518C25.9166 144.09 27.0242 143.869 28.1428 143.869C29.2614 143.869 30.369 144.09 31.4024 144.518C32.4358 144.946 33.3747 145.574 34.1655 146.365C34.9563 147.156 35.5835 148.095 36.0111 149.129C36.4388 150.163 36.6587 151.27 36.6582 152.389L36.6582 152.587ZM20.0259 152.191H36.2598C36.2081 150.072 35.3302 148.058 33.8136 146.578C32.297 145.098 30.2619 144.269 28.1428 144.269C26.0237 144.269 23.9886 145.098 22.472 146.578C20.9554 148.058 20.0775 150.072 20.0259 152.191Z" fill="#3F3D56"/>
<path d="M28.1429 147.556C28.0833 147.556 28.0261 147.579 27.984 147.622C27.9418 147.664 27.9181 147.721 27.9181 147.78V150.168L25.5919 148.172C25.5695 148.153 25.5435 148.138 25.5154 148.129C25.4873 148.119 25.4577 148.116 25.4282 148.118C25.3987 148.12 25.37 148.128 25.3436 148.141C25.3172 148.155 25.2937 148.173 25.2745 148.196C25.2552 148.218 25.2405 148.244 25.2314 148.272C25.2222 148.3 25.2186 148.33 25.2209 148.359C25.2232 148.389 25.2312 148.418 25.2446 148.444C25.2581 148.47 25.2765 148.494 25.299 148.513L27.9181 150.761V152.164C27.918 152.193 27.9238 152.223 27.935 152.25C27.9463 152.278 27.9628 152.302 27.9837 152.323C28.0046 152.344 28.0294 152.361 28.0567 152.372C28.0841 152.384 28.1133 152.389 28.1429 152.389C28.1725 152.389 28.2018 152.384 28.2291 152.372C28.2564 152.361 28.2812 152.344 28.3021 152.323C28.323 152.302 28.3396 152.278 28.3508 152.25C28.3621 152.223 28.3678 152.193 28.3677 152.164V147.78C28.3677 147.721 28.344 147.664 28.3019 147.622C28.2597 147.579 28.2025 147.556 28.1429 147.556Z" fill="#3F3D56"/>
<path d="M40.333 128.483C40.2541 128.483 40.1772 128.483 40.0983 128.481C34.8043 128.421 29.7473 126.277 26.0242 122.513C22.3011 118.749 20.2121 113.669 20.2102 108.374C20.2102 102.529 22.6174 93.1748 26.064 85.6257C28.5426 80.1968 33.6923 71.0891 40.333 71.0891C43.0683 71.0891 45.8226 72.6481 48.5195 75.7229C48.6532 75.8746 48.7872 76.0307 48.9194 76.1907L48.9646 76.2457V126.54L48.853 126.594C48.7197 126.659 48.5845 126.719 48.4493 126.778C45.9642 127.878 43.2803 128.457 40.5628 128.481C40.4889 128.483 40.4099 128.483 40.333 128.483ZM40.333 71.4852C33.9138 71.4852 28.8634 80.4477 26.4242 85.7901C22.9987 93.2931 20.6062 102.58 20.6062 108.374C20.6062 119.122 29.3536 127.964 40.1055 128.085C40.1856 128.087 40.2603 128.088 40.3382 128.087C40.4101 128.087 40.4838 128.087 40.5556 128.085C43.2209 128.062 45.8532 127.494 48.2905 126.415C48.384 126.374 48.4767 126.333 48.5686 126.291V76.3883C48.454 76.2506 48.338 76.116 48.2221 75.9844C45.6033 72.9988 42.9492 71.4852 40.333 71.4852Z" fill="#3F3D56"/>
<path d="M40.3323 114.446C40.2996 114.446 40.2673 114.439 40.2376 114.425C40.2079 114.412 40.1814 114.392 40.16 114.367L28.7019 101.153C28.6624 101.107 28.6427 101.048 28.6471 100.988C28.6514 100.928 28.6795 100.872 28.7251 100.832C28.7707 100.793 28.8301 100.773 28.8903 100.777C28.9505 100.781 29.0066 100.809 29.0462 100.855L40.5044 114.068C40.5329 114.102 40.5515 114.142 40.5577 114.185C40.5639 114.228 40.5576 114.273 40.5394 114.312C40.5213 114.352 40.4922 114.386 40.4554 114.409C40.4187 114.433 40.376 114.446 40.3323 114.446Z" fill="#CCCCCC"/>
<path d="M40.332 122.072C40.287 122.072 40.2429 122.058 40.2055 122.033C40.168 122.008 40.1388 121.973 40.1216 121.931C40.1043 121.889 40.0998 121.844 40.1086 121.799C40.1174 121.755 40.1391 121.715 40.171 121.683L46.6817 115.172C46.7245 115.129 46.7823 115.106 46.8426 115.106C46.903 115.106 46.9608 115.13 47.0034 115.172C47.0461 115.215 47.07 115.273 47.0701 115.333C47.0702 115.394 47.0464 115.451 47.0039 115.494L40.4931 122.005C40.472 122.026 40.4469 122.043 40.4193 122.054C40.3916 122.066 40.362 122.072 40.332 122.072Z" fill="#CCCCCC"/>
<path d="M58.224 34.4555L58.3706 34.7446C58.4355 34.8694 58.4695 35.008 58.4696 35.1486V42.9704H65.4003V35.1486C65.4004 35.008 65.4343 34.8694 65.4993 34.7446L65.6459 34.4555H58.224ZM65.0042 35.1486V42.5744H58.8656V35.1486C58.8657 35.0485 58.8538 34.9488 58.83 34.8516H65.0399C65.0161 34.9488 65.0041 35.0485 65.0042 35.1486ZM66.9369 34.4555L67.0835 34.7446C67.1484 34.8694 67.1824 35.008 67.1825 35.1486V42.9704H74.1132V35.1486C74.1132 35.008 74.1472 34.8694 74.2122 34.7446L74.3588 34.4555H66.9369ZM73.7171 35.1486V42.5744H67.5785V35.1486C67.5786 35.0485 67.5666 34.9488 67.5428 34.8516H73.7528C73.729 34.9488 73.717 35.0485 73.7171 35.1486ZM75.6498 34.4555L75.7963 34.7446C75.8613 34.8694 75.8952 35.008 75.8953 35.1486V42.9704H82.826V35.1486C82.8261 35.008 82.8601 34.8694 82.925 34.7446L83.0716 34.4555H75.6498ZM82.43 35.1486V42.5744H76.2914V35.1486C76.2915 35.0485 76.2795 34.9488 76.2557 34.8516H82.4657C82.4419 34.9488 82.4299 35.0485 82.43 35.1486ZM84.3626 34.4555L84.5092 34.7446C84.5742 34.8694 84.6081 35.008 84.6082 35.1486V42.9704H91.5389V35.1486C91.539 35.008 91.573 34.8694 91.6379 34.7446L91.7845 34.4555H84.3626ZM91.1429 35.1486V42.5744H85.0043V35.1486C85.0044 35.0485 84.9924 34.9488 84.9686 34.8516H91.1785C91.1547 34.9488 91.1428 35.0485 91.1429 35.1486ZM93.0755 34.4555L93.2221 34.7446C93.287 34.8694 93.321 35.008 93.3211 35.1486V42.9704H100.252V35.1486C100.252 35.008 100.286 34.8694 100.351 34.7446L100.497 34.4555H93.0755ZM99.8557 35.1486V42.5744H93.7171V35.1486C93.7172 35.0485 93.7053 34.9488 93.6814 34.8516H99.8914C99.8676 34.9488 99.8556 35.0485 99.8557 35.1486ZM101.788 34.4555L101.935 34.7446C102 34.8694 102.034 35.008 102.034 35.1486V42.9704H108.965V35.1486C108.965 35.008 108.999 34.8694 109.064 34.7446L109.21 34.4555H101.788ZM108.569 35.1486V42.5744H102.43V35.1486C102.43 35.0485 102.418 34.9488 102.394 34.8516H108.604C108.58 34.9488 108.569 35.0485 108.569 35.1486ZM110.501 34.4555L110.648 34.7446C110.713 34.8694 110.747 35.008 110.747 35.1486V42.9704H117.678V35.1486C117.678 35.008 117.712 34.8694 117.777 34.7446L117.923 34.4555H110.501ZM117.281 35.1486V42.5744H111.143V35.1486C111.143 35.0485 111.131 34.9488 111.107 34.8516H117.317C117.293 34.9488 117.281 35.0485 117.281 35.1486ZM119.214 34.4555L119.361 34.7446C119.426 34.8694 119.46 35.008 119.46 35.1486V42.9704H126.39V35.1486C126.39 35.008 126.424 34.8694 126.489 34.7446L126.636 34.4555H119.214ZM125.994 35.1486V42.5744H119.856V35.1486C119.856 35.0485 119.844 34.9488 119.82 34.8516H126.03C126.006 34.9488 125.994 35.0485 125.994 35.1486ZM127.927 34.4555L128.074 34.7446C128.139 34.8694 128.172 35.008 128.173 35.1486V42.9704H135.103V35.1486C135.103 35.008 135.137 34.8694 135.202 34.7446L135.349 34.4555H127.927ZM134.707 35.1486V42.5744H128.569V35.1486C128.569 35.0485 128.557 34.9488 128.533 34.8516H134.743C134.719 34.9488 134.707 35.0485 134.707 35.1486ZM127.927 34.4555L128.074 34.7446C128.139 34.8694 128.172 35.008 128.173 35.1486V42.9704H135.103V35.1486C135.103 35.008 135.137 34.8694 135.202 34.7446L135.349 34.4555H127.927ZM134.707 35.1486V42.5744H128.569V35.1486C128.569 35.0485 128.557 34.9488 128.533 34.8516H134.743C134.719 34.9488 134.707 35.0485 134.707 35.1486ZM119.214 34.4555L119.361 34.7446C119.426 34.8694 119.46 35.008 119.46 35.1486V42.9704H126.39V35.1486C126.39 35.008 126.424 34.8694 126.489 34.7446L126.636 34.4555H119.214ZM125.994 35.1486V42.5744H119.856V35.1486C119.856 35.0485 119.844 34.9488 119.82 34.8516H126.03C126.006 34.9488 125.994 35.0485 125.994 35.1486ZM110.501 34.4555L110.648 34.7446C110.713 34.8694 110.747 35.008 110.747 35.1486V42.9704H117.678V35.1486C117.678 35.008 117.712 34.8694 117.777 34.7446L117.923 34.4555H110.501ZM117.281 35.1486V42.5744H111.143V35.1486C111.143 35.0485 111.131 34.9488 111.107 34.8516H117.317C117.293 34.9488 117.281 35.0485 117.281 35.1486ZM101.788 34.4555L101.935 34.7446C102 34.8694 102.034 35.008 102.034 35.1486V42.9704H108.965V35.1486C108.965 35.008 108.999 34.8694 109.064 34.7446L109.21 34.4555H101.788ZM108.569 35.1486V42.5744H102.43V35.1486C102.43 35.0485 102.418 34.9488 102.394 34.8516H108.604C108.58 34.9488 108.569 35.0485 108.569 35.1486ZM93.0755 34.4555L93.2221 34.7446C93.287 34.8694 93.321 35.008 93.3211 35.1486V42.9704H100.252V35.1486C100.252 35.008 100.286 34.8694 100.351 34.7446L100.497 34.4555H93.0755ZM99.8557 35.1486V42.5744H93.7171V35.1486C93.7172 35.0485 93.7053 34.9488 93.6814 34.8516H99.8914C99.8676 34.9488 99.8556 35.0485 99.8557 35.1486ZM84.3626 34.4555L84.5092 34.7446C84.5742 34.8694 84.6081 35.008 84.6082 35.1486V42.9704H91.5389V35.1486C91.539 35.008 91.573 34.8694 91.6379 34.7446L91.7845 34.4555H84.3626ZM91.1429 35.1486V42.5744H85.0043V35.1486C85.0044 35.0485 84.9924 34.9488 84.9686 34.8516H91.1785C91.1547 34.9488 91.1428 35.0485 91.1429 35.1486ZM75.6498 34.4555L75.7963 34.7446C75.8613 34.8694 75.8952 35.008 75.8953 35.1486V42.9704H82.826V35.1486C82.8261 35.008 82.8601 34.8694 82.925 34.7446L83.0716 34.4555H75.6498ZM82.43 35.1486V42.5744H76.2914V35.1486C76.2915 35.0485 76.2795 34.9488 76.2557 34.8516H82.4657C82.4419 34.9488 82.4299 35.0485 82.43 35.1486ZM66.9369 34.4555L67.0835 34.7446C67.1484 34.8694 67.1824 35.008 67.1825 35.1486V42.9704H74.1132V35.1486C74.1132 35.008 74.1472 34.8694 74.2122 34.7446L74.3588 34.4555H66.9369ZM73.7171 35.1486V42.5744H67.5785V35.1486C67.5786 35.0485 67.5666 34.9488 67.5428 34.8516H73.7528C73.729 34.9488 73.717 35.0485 73.7171 35.1486ZM58.224 34.4555L58.3706 34.7446C58.4355 34.8694 58.4695 35.008 58.4696 35.1486V42.9704H65.4003V35.1486C65.4004 35.008 65.4343 34.8694 65.4993 34.7446L65.6459 34.4555H58.224ZM65.0042 35.1486V42.5744H58.8656V35.1486C58.8657 35.0485 58.8538 34.9488 58.83 34.8516H65.0399C65.0161 34.9488 65.0041 35.0485 65.0042 35.1486ZM127.927 34.4555L128.074 34.7446C128.139 34.8694 128.172 35.008 128.173 35.1486V42.9704H135.103V35.1486C135.103 35.008 135.137 34.8694 135.202 34.7446L135.349 34.4555H127.927ZM134.707 35.1486V42.5744H128.569V35.1486C128.569 35.0485 128.557 34.9488 128.533 34.8516H134.743C134.719 34.9488 134.707 35.0485 134.707 35.1486ZM119.214 34.4555L119.361 34.7446C119.426 34.8694 119.46 35.008 119.46 35.1486V42.9704H126.39V35.1486C126.39 35.008 126.424 34.8694 126.489 34.7446L126.636 34.4555H119.214ZM125.994 35.1486V42.5744H119.856V35.1486C119.856 35.0485 119.844 34.9488 119.82 34.8516H126.03C126.006 34.9488 125.994 35.0485 125.994 35.1486ZM110.501 34.4555L110.648 34.7446C110.713 34.8694 110.747 35.008 110.747 35.1486V42.9704H117.678V35.1486C117.678 35.008 117.712 34.8694 117.777 34.7446L117.923 34.4555H110.501ZM117.281 35.1486V42.5744H111.143V35.1486C111.143 35.0485 111.131 34.9488 111.107 34.8516H117.317C117.293 34.9488 117.281 35.0485 117.281 35.1486ZM101.788 34.4555L101.935 34.7446C102 34.8694 102.034 35.008 102.034 35.1486V42.9704H108.965V35.1486C108.965 35.008 108.999 34.8694 109.064 34.7446L109.21 34.4555H101.788ZM108.569 35.1486V42.5744H102.43V35.1486C102.43 35.0485 102.418 34.9488 102.394 34.8516H108.604C108.58 34.9488 108.569 35.0485 108.569 35.1486ZM93.0755 34.4555L93.2221 34.7446C93.287 34.8694 93.321 35.008 93.3211 35.1486V42.9704H100.252V35.1486C100.252 35.008 100.286 34.8694 100.351 34.7446L100.497 34.4555H93.0755ZM99.8557 35.1486V42.5744H93.7171V35.1486C93.7172 35.0485 93.7053 34.9488 93.6814 34.8516H99.8914C99.8676 34.9488 99.8556 35.0485 99.8557 35.1486ZM84.3626 34.4555L84.5092 34.7446C84.5742 34.8694 84.6081 35.008 84.6082 35.1486V42.9704H91.5389V35.1486C91.539 35.008 91.573 34.8694 91.6379 34.7446L91.7845 34.4555H84.3626ZM91.1429 35.1486V42.5744H85.0043V35.1486C85.0044 35.0485 84.9924 34.9488 84.9686 34.8516H91.1785C91.1547 34.9488 91.1428 35.0485 91.1429 35.1486ZM75.6498 34.4555L75.7963 34.7446C75.8613 34.8694 75.8952 35.008 75.8953 35.1486V42.9704H82.826V35.1486C82.8261 35.008 82.8601 34.8694 82.925 34.7446L83.0716 34.4555H75.6498ZM82.43 35.1486V42.5744H76.2914V35.1486C76.2915 35.0485 76.2795 34.9488 76.2557 34.8516H82.4657C82.4419 34.9488 82.4299 35.0485 82.43 35.1486ZM66.9369 34.4555L67.0835 34.7446C67.1484 34.8694 67.1824 35.008 67.1825 35.1486V42.9704H74.1132V35.1486C74.1132 35.008 74.1472 34.8694 74.2122 34.7446L74.3588 34.4555H66.9369ZM73.7171 35.1486V42.5744H67.5785V35.1486C67.5786 35.0485 67.5666 34.9488 67.5428 34.8516H73.7528C73.729 34.9488 73.717 35.0485 73.7171 35.1486ZM58.224 34.4555L58.3706 34.7446C58.4355 34.8694 58.4695 35.008 58.4696 35.1486V42.9704H65.4003V35.1486C65.4004 35.008 65.4343 34.8694 65.4993 34.7446L65.6459 34.4555H58.224ZM65.0042 35.1486V42.5744H58.8656V35.1486C58.8657 35.0485 58.8538 34.9488 58.83 34.8516H65.0399C65.0161 34.9488 65.0041 35.0485 65.0042 35.1486ZM127.927 34.4555L128.074 34.7446C128.139 34.8694 128.172 35.008 128.173 35.1486V42.9704H135.103V35.1486C135.103 35.008 135.137 34.8694 135.202 34.7446L135.349 34.4555H127.927ZM134.707 35.1486V42.5744H128.569V35.1486C128.569 35.0485 128.557 34.9488 128.533 34.8516H134.743C134.719 34.9488 134.707 35.0485 134.707 35.1486ZM119.214 34.4555L119.361 34.7446C119.426 34.8694 119.46 35.008 119.46 35.1486V42.9704H126.39V35.1486C126.39 35.008 126.424 34.8694 126.489 34.7446L126.636 34.4555H119.214ZM125.994 35.1486V42.5744H119.856V35.1486C119.856 35.0485 119.844 34.9488 119.82 34.8516H126.03C126.006 34.9488 125.994 35.0485 125.994 35.1486ZM110.501 34.4555L110.648 34.7446C110.713 34.8694 110.747 35.008 110.747 35.1486V42.9704H117.678V35.1486C117.678 35.008 117.712 34.8694 117.777 34.7446L117.923 34.4555H110.501ZM117.281 35.1486V42.5744H111.143V35.1486C111.143 35.0485 111.131 34.9488 111.107 34.8516H117.317C117.293 34.9488 117.281 35.0485 117.281 35.1486ZM101.788 34.4555L101.935 34.7446C102 34.8694 102.034 35.008 102.034 35.1486V42.9704H108.965V35.1486C108.965 35.008 108.999 34.8694 109.064 34.7446L109.21 34.4555H101.788ZM108.569 35.1486V42.5744H102.43V35.1486C102.43 35.0485 102.418 34.9488 102.394 34.8516H108.604C108.58 34.9488 108.569 35.0485 108.569 35.1486ZM93.0755 34.4555L93.2221 34.7446C93.287 34.8694 93.321 35.008 93.3211 35.1486V42.9704H100.252V35.1486C100.252 35.008 100.286 34.8694 100.351 34.7446L100.497 34.4555H93.0755ZM99.8557 35.1486V42.5744H93.7171V35.1486C93.7172 35.0485 93.7053 34.9488 93.6814 34.8516H99.8914C99.8676 34.9488 99.8556 35.0485 99.8557 35.1486ZM84.3626 34.4555L84.5092 34.7446C84.5742 34.8694 84.6081 35.008 84.6082 35.1486V42.9704H91.5389V35.1486C91.539 35.008 91.573 34.8694 91.6379 34.7446L91.7845 34.4555H84.3626ZM91.1429 35.1486V42.5744H85.0043V35.1486C85.0044 35.0485 84.9924 34.9488 84.9686 34.8516H91.1785C91.1547 34.9488 91.1428 35.0485 91.1429 35.1486ZM75.6498 34.4555L75.7963 34.7446C75.8613 34.8694 75.8952 35.008 75.8953 35.1486V42.9704H82.826V35.1486C82.8261 35.008 82.8601 34.8694 82.925 34.7446L83.0716 34.4555H75.6498ZM82.43 35.1486V42.5744H76.2914V35.1486C76.2915 35.0485 76.2795 34.9488 76.2557 34.8516H82.4657C82.4419 34.9488 82.4299 35.0485 82.43 35.1486ZM66.9369 34.4555L67.0835 34.7446C67.1484 34.8694 67.1824 35.008 67.1825 35.1486V42.9704H74.1132V35.1486C74.1132 35.008 74.1472 34.8694 74.2122 34.7446L74.3588 34.4555H66.9369ZM73.7171 35.1486V42.5744H67.5785V35.1486C67.5786 35.0485 67.5666 34.9488 67.5428 34.8516H73.7528C73.729 34.9488 73.717 35.0485 73.7171 35.1486ZM58.224 34.4555L58.3706 34.7446C58.4355 34.8694 58.4695 35.008 58.4696 35.1486V42.9704H65.4003V35.1486C65.4004 35.008 65.4343 34.8694 65.4993 34.7446L65.6459 34.4555H58.224ZM65.0042 35.1486V42.5744H58.8656V35.1486C58.8657 35.0485 58.8538 34.9488 58.83 34.8516H65.0399C65.0161 34.9488 65.0041 35.0485 65.0042 35.1486ZM127.927 34.4555L128.074 34.7446C128.139 34.8694 128.172 35.008 128.173 35.1486V42.9704H135.103V35.1486C135.103 35.008 135.137 34.8694 135.202 34.7446L135.349 34.4555H127.927ZM134.707 35.1486V42.5744H128.569V35.1486C128.569 35.0485 128.557 34.9488 128.533 34.8516H134.743C134.719 34.9488 134.707 35.0485 134.707 35.1486ZM119.214 34.4555L119.361 34.7446C119.426 34.8694 119.46 35.008 119.46 35.1486V42.9704H126.39V35.1486C126.39 35.008 126.424 34.8694 126.489 34.7446L126.636 34.4555H119.214ZM125.994 35.1486V42.5744H119.856V35.1486C119.856 35.0485 119.844 34.9488 119.82 34.8516H126.03C126.006 34.9488 125.994 35.0485 125.994 35.1486ZM110.501 34.4555L110.648 34.7446C110.713 34.8694 110.747 35.008 110.747 35.1486V42.9704H117.678V35.1486C117.678 35.008 117.712 34.8694 117.777 34.7446L117.923 34.4555H110.501ZM117.281 35.1486V42.5744H111.143V35.1486C111.143 35.0485 111.131 34.9488 111.107 34.8516H117.317C117.293 34.9488 117.281 35.0485 117.281 35.1486ZM101.788 34.4555L101.935 34.7446C102 34.8694 102.034 35.008 102.034 35.1486V42.9704H108.965V35.1486C108.965 35.008 108.999 34.8694 109.064 34.7446L109.21 34.4555H101.788ZM108.569 35.1486V42.5744H102.43V35.1486C102.43 35.0485 102.418 34.9488 102.394 34.8516H108.604C108.58 34.9488 108.569 35.0485 108.569 35.1486ZM93.0755 34.4555L93.2221 34.7446C93.287 34.8694 93.321 35.008 93.3211 35.1486V42.9704H100.252V35.1486C100.252 35.008 100.286 34.8694 100.351 34.7446L100.497 34.4555H93.0755ZM99.8557 35.1486V42.5744H93.7171V35.1486C93.7172 35.0485 93.7053 34.9488 93.6814 34.8516H99.8914C99.8676 34.9488 99.8556 35.0485 99.8557 35.1486ZM84.3626 34.4555L84.5092 34.7446C84.5742 34.8694 84.6081 35.008 84.6082 35.1486V42.9704H91.5389V35.1486C91.539 35.008 91.573 34.8694 91.6379 34.7446L91.7845 34.4555H84.3626ZM91.1429 35.1486V42.5744H85.0043V35.1486C85.0044 35.0485 84.9924 34.9488 84.9686 34.8516H91.1785C91.1547 34.9488 91.1428 35.0485 91.1429 35.1486ZM75.6498 34.4555L75.7963 34.7446C75.8613 34.8694 75.8952 35.008 75.8953 35.1486V42.9704H82.826V35.1486C82.8261 35.008 82.8601 34.8694 82.925 34.7446L83.0716 34.4555H75.6498ZM82.43 35.1486V42.5744H76.2914V35.1486C76.2915 35.0485 76.2795 34.9488 76.2557 34.8516H82.4657C82.4419 34.9488 82.4299 35.0485 82.43 35.1486ZM66.9369 34.4555L67.0835 34.7446C67.1484 34.8694 67.1824 35.008 67.1825 35.1486V42.9704H74.1132V35.1486C74.1132 35.008 74.1472 34.8694 74.2122 34.7446L74.3588 34.4555H66.9369ZM73.7171 35.1486V42.5744H67.5785V35.1486C67.5786 35.0485 67.5666 34.9488 67.5428 34.8516H73.7528C73.729 34.9488 73.717 35.0485 73.7171 35.1486ZM58.224 34.4555L58.3706 34.7446C58.4355 34.8694 58.4695 35.008 58.4696 35.1486V42.9704H65.4003V35.1486C65.4004 35.008 65.4343 34.8694 65.4993 34.7446L65.6459 34.4555H58.224ZM65.0042 35.1486V42.5744H58.8656V35.1486C58.8657 35.0485 58.8538 34.9488 58.83 34.8516H65.0399C65.0161 34.9488 65.0041 35.0485 65.0042 35.1486ZM127.927 34.4555L128.074 34.7446C128.139 34.8694 128.172 35.008 128.173 35.1486V42.9704H135.103V35.1486C135.103 35.008 135.137 34.8694 135.202 34.7446L135.349 34.4555H127.927ZM134.707 35.1486V42.5744H128.569V35.1486C128.569 35.0485 128.557 34.9488 128.533 34.8516H134.743C134.719 34.9488 134.707 35.0485 134.707 35.1486ZM119.361 34.7446C119.426 34.8694 119.46 35.008 119.46 35.1486V42.9704H126.39V35.1486C126.39 35.008 126.424 34.8694 126.489 34.7446L126.636 34.4555H119.214L119.361 34.7446ZM126.03 34.8516C126.006 34.9488 125.994 35.0485 125.994 35.1486V42.5744H119.856V35.1486C119.856 35.0485 119.844 34.9488 119.82 34.8516H126.03ZM110.648 34.7446C110.713 34.8694 110.747 35.008 110.747 35.1486V42.9704H117.678V35.1486C117.678 35.008 117.712 34.8694 117.777 34.7446L117.923 34.4555H110.501L110.648 34.7446ZM117.317 34.8516C117.293 34.9488 117.281 35.0485 117.281 35.1486V42.5744H111.143V35.1486C111.143 35.0485 111.131 34.9488 111.107 34.8516H117.317ZM101.935 34.7446C102 34.8694 102.034 35.008 102.034 35.1486V42.9704H108.965V35.1486C108.965 35.008 108.999 34.8694 109.064 34.7446L109.21 34.4555H101.788L101.935 34.7446ZM108.604 34.8516C108.58 34.9488 108.569 35.0485 108.569 35.1486V42.5744H102.43V35.1486C102.43 35.0485 102.418 34.9488 102.394 34.8516H108.604ZM93.2221 34.7446C93.287 34.8694 93.321 35.008 93.3211 35.1486V42.9704H100.252V35.1486C100.252 35.008 100.286 34.8694 100.351 34.7446L100.497 34.4555H93.0755L93.2221 34.7446ZM99.8914 34.8516C99.8676 34.9488 99.8556 35.0485 99.8557 35.1486V42.5744H93.7171V35.1486C93.7172 35.0485 93.7053 34.9488 93.6814 34.8516H99.8914ZM84.5092 34.7446C84.5742 34.8694 84.6081 35.008 84.6082 35.1486V42.9704H91.5389V35.1486C91.539 35.008 91.573 34.8694 91.6379 34.7446L91.7845 34.4555H84.3626L84.5092 34.7446ZM91.1785 34.8516C91.1547 34.9488 91.1428 35.0485 91.1429 35.1486V42.5744H85.0043V35.1486C85.0044 35.0485 84.9924 34.9488 84.9686 34.8516H91.1785ZM75.7963 34.7446C75.8613 34.8694 75.8952 35.008 75.8953 35.1486V42.9704H82.826V35.1486C82.8261 35.008 82.8601 34.8694 82.925 34.7446L83.0716 34.4555H75.6498L75.7963 34.7446ZM82.4657 34.8516C82.4419 34.9488 82.4299 35.0485 82.43 35.1486V42.5744H76.2914V35.1486C76.2915 35.0485 76.2795 34.9488 76.2557 34.8516H82.4657ZM67.0835 34.7446C67.1484 34.8694 67.1824 35.008 67.1825 35.1486V42.9704H74.1132V35.1486C74.1132 35.008 74.1472 34.8694 74.2122 34.7446L74.3588 34.4555H66.9369L67.0835 34.7446ZM73.7528 34.8516C73.729 34.9488 73.717 35.0485 73.7171 35.1486V42.5744H67.5785V35.1486C67.5786 35.0485 67.5666 34.9488 67.5428 34.8516H73.7528ZM58.3706 34.7446C58.4355 34.8694 58.4695 35.008 58.4696 35.1486V42.9704H65.4003V35.1486C65.4004 35.008 65.4343 34.8694 65.4993 34.7446L65.6459 34.4555H58.224L58.3706 34.7446ZM65.0399 34.8516C65.0161 34.9488 65.0041 35.0485 65.0042 35.1486V42.5744H58.8656V35.1486C58.8657 35.0485 58.8538 34.9488 58.83 34.8516H65.0399ZM128.074 34.7446C128.139 34.8694 128.172 35.008 128.173 35.1486V42.9704H135.103V35.1486C135.103 35.008 135.137 34.8694 135.202 34.7446L135.349 34.4555H127.927L128.074 34.7446ZM134.743 34.8516C134.719 34.9488 134.707 35.0485 134.707 35.1486V42.5744H128.569V35.1486C128.569 35.0485 128.557 34.9488 128.533 34.8516H134.743ZM119.361 34.7446C119.426 34.8694 119.46 35.008 119.46 35.1486V42.9704H126.39V35.1486C126.39 35.008 126.424 34.8694 126.489 34.7446L126.636 34.4555H119.214L119.361 34.7446ZM126.03 34.8516C126.006 34.9488 125.994 35.0485 125.994 35.1486V42.5744H119.856V35.1486C119.856 35.0485 119.844 34.9488 119.82 34.8516H126.03ZM110.648 34.7446C110.713 34.8694 110.747 35.008 110.747 35.1486V42.9704H117.678V35.1486C117.678 35.008 117.712 34.8694 117.777 34.7446L117.923 34.4555H110.501L110.648 34.7446ZM117.317 34.8516C117.293 34.9488 117.281 35.0485 117.281 35.1486V42.5744H111.143V35.1486C111.143 35.0485 111.131 34.9488 111.107 34.8516H117.317ZM101.935 34.7446C102 34.8694 102.034 35.008 102.034 35.1486V42.9704H108.965V35.1486C108.965 35.008 108.999 34.8694 109.064 34.7446L109.21 34.4555H101.788L101.935 34.7446ZM108.604 34.8516C108.58 34.9488 108.569 35.0485 108.569 35.1486V42.5744H102.43V35.1486C102.43 35.0485 102.418 34.9488 102.394 34.8516H108.604ZM93.2221 34.7446C93.287 34.8694 93.321 35.008 93.3211 35.1486V42.9704H100.252V35.1486C100.252 35.008 100.286 34.8694 100.351 34.7446L100.497 34.4555H93.0755L93.2221 34.7446ZM99.8914 34.8516C99.8676 34.9488 99.8556 35.0485 99.8557 35.1486V42.5744H93.7171V35.1486C93.7172 35.0485 93.7053 34.9488 93.6814 34.8516H99.8914ZM84.5092 34.7446C84.5742 34.8694 84.6081 35.008 84.6082 35.1486V42.9704H91.5389V35.1486C91.539 35.008 91.573 34.8694 91.6379 34.7446L91.7845 34.4555H84.3626L84.5092 34.7446ZM91.1785 34.8516C91.1547 34.9488 91.1428 35.0485 91.1429 35.1486V42.5744H85.0043V35.1486C85.0044 35.0485 84.9924 34.9488 84.9686 34.8516H91.1785ZM75.7963 34.7446C75.8613 34.8694 75.8952 35.008 75.8953 35.1486V42.9704H82.826V35.1486C82.8261 35.008 82.8601 34.8694 82.925 34.7446L83.0716 34.4555H75.6498L75.7963 34.7446ZM82.4657 34.8516C82.4419 34.9488 82.4299 35.0485 82.43 35.1486V42.5744H76.2914V35.1486C76.2915 35.0485 76.2795 34.9488 76.2557 34.8516H82.4657ZM67.0835 34.7446C67.1484 34.8694 67.1824 35.008 67.1825 35.1486V42.9704H74.1132V35.1486C74.1132 35.008 74.1472 34.8694 74.2122 34.7446L74.3588 34.4555H66.9369L67.0835 34.7446ZM73.7528 34.8516C73.729 34.9488 73.717 35.0485 73.7171 35.1486V42.5744H67.5785V35.1486C67.5786 35.0485 67.5666 34.9488 67.5428 34.8516H73.7528ZM58.3706 34.7446C58.4355 34.8694 58.4695 35.008 58.4696 35.1486V42.9704H65.4003V35.1486C65.4004 35.008 65.4343 34.8694 65.4993 34.7446L65.6459 34.4555H58.224L58.3706 34.7446ZM65.0399 34.8516C65.0161 34.9488 65.0041 35.0485 65.0042 35.1486V42.5744H58.8656V35.1486C58.8657 35.0485 58.8538 34.9488 58.83 34.8516H65.0399ZM143.024 44.1585H140.664C140.533 43.703 140.259 43.3021 139.881 43.0164C139.503 42.7306 139.042 42.5755 138.569 42.5744H137.281V35.1486C137.282 34.9892 137.252 34.8312 137.192 34.6833C137.417 34.5511 137.591 34.3488 137.689 34.1076C137.787 33.8664 137.803 33.5996 137.734 33.3484C137.666 33.0973 137.516 32.8757 137.309 32.7179C137.102 32.5601 136.849 32.4749 136.588 32.4753H56.9844C56.7241 32.4749 56.4708 32.5601 56.2636 32.7179C56.0565 32.8757 55.9071 33.0973 55.8384 33.3484C55.7697 33.5996 55.7855 33.8664 55.8835 34.1076C55.9815 34.3488 56.1562 34.5511 56.3805 34.6833C56.3211 34.8312 56.2909 34.9892 56.2914 35.1486V42.5744H55.0042C54.5305 42.5755 54.0699 42.7306 53.692 43.0164C53.3141 43.3021 53.0394 43.703 52.9092 44.1585H50.3508C49.8783 44.1592 49.4254 44.3472 49.0914 44.6813C48.7573 45.0154 48.5693 45.4682 48.5686 45.9407V150.495C48.5696 150.967 48.7577 151.42 49.0917 151.754C49.4257 152.088 49.8784 152.276 50.3508 152.277H143.024C143.497 152.277 143.949 152.089 144.283 151.755C144.618 151.42 144.806 150.968 144.806 150.495V45.9407C144.806 45.4682 144.618 45.0154 144.283 44.6813C143.949 44.3472 143.497 44.1592 143.024 44.1585ZM144.41 150.495C144.41 150.778 144.323 151.054 144.161 151.286C143.999 151.519 143.771 151.696 143.505 151.794C143.352 151.853 143.188 151.882 143.024 151.881H50.3508C50.1864 151.882 50.0232 151.853 49.8696 151.794C49.6042 151.696 49.3753 151.519 49.2136 151.286C49.0518 151.054 48.965 150.778 48.9646 150.495V45.9407C48.9651 45.5732 49.1112 45.2209 49.3711 44.961C49.631 44.7011 49.9833 44.555 50.3508 44.5546H53.226L53.2577 44.3961C53.341 43.9941 53.56 43.633 53.8781 43.3734C54.1961 43.1138 54.5937 42.9715 55.0042 42.9704H56.6874V35.1486C56.6875 34.9875 56.7313 34.8294 56.8142 34.6912L56.9369 34.4872L56.7131 34.4041C56.5383 34.3407 56.3914 34.2176 56.2983 34.0566C56.2053 33.8955 56.172 33.7068 56.2045 33.5237C56.2369 33.3405 56.3329 33.1747 56.4756 33.0554C56.6182 32.936 56.7984 32.8709 56.9844 32.8714H136.588C136.774 32.8709 136.955 32.936 137.097 33.0554C137.24 33.1747 137.336 33.3405 137.368 33.5237C137.401 33.7068 137.368 33.8955 137.275 34.0566C137.181 34.2176 137.035 34.3407 136.86 34.4041L136.636 34.4872L136.759 34.6912C136.842 34.8294 136.885 34.9875 136.885 35.1486V42.9704H138.569C138.979 42.9715 139.377 43.1138 139.695 43.3734C140.013 43.633 140.232 43.9941 140.315 44.3961L140.347 44.5546H143.024C143.392 44.555 143.744 44.7011 144.004 44.961C144.264 45.2209 144.41 45.5732 144.41 45.9407L144.41 150.495ZM58.224 34.4555L58.3706 34.7446C58.4355 34.8694 58.4695 35.008 58.4696 35.1486V42.9704H65.4003V35.1486C65.4004 35.008 65.4343 34.8694 65.4993 34.7446L65.6459 34.4555H58.224ZM65.0042 35.1486V42.5744H58.8656V35.1486C58.8657 35.0485 58.8538 34.9488 58.83 34.8516H65.0399C65.0161 34.9488 65.0041 35.0485 65.0042 35.1486ZM66.9369 34.4555L67.0835 34.7446C67.1484 34.8694 67.1824 35.008 67.1825 35.1486V42.9704H74.1132V35.1486C74.1132 35.008 74.1472 34.8694 74.2122 34.7446L74.3588 34.4555H66.9369ZM73.7171 35.1486V42.5744H67.5785V35.1486C67.5786 35.0485 67.5666 34.9488 67.5428 34.8516H73.7528C73.729 34.9488 73.717 35.0485 73.7171 35.1486ZM75.6498 34.4555L75.7963 34.7446C75.8613 34.8694 75.8952 35.008 75.8953 35.1486V42.9704H82.826V35.1486C82.8261 35.008 82.8601 34.8694 82.925 34.7446L83.0716 34.4555H75.6498ZM82.43 35.1486V42.5744H76.2914V35.1486C76.2915 35.0485 76.2795 34.9488 76.2557 34.8516H82.4657C82.4419 34.9488 82.4299 35.0485 82.43 35.1486ZM84.3626 34.4555L84.5092 34.7446C84.5742 34.8694 84.6081 35.008 84.6082 35.1486V42.9704H91.5389V35.1486C91.539 35.008 91.573 34.8694 91.6379 34.7446L91.7845 34.4555H84.3626ZM91.1429 35.1486V42.5744H85.0043V35.1486C85.0044 35.0485 84.9924 34.9488 84.9686 34.8516H91.1785C91.1547 34.9488 91.1428 35.0485 91.1429 35.1486ZM93.0755 34.4555L93.2221 34.7446C93.287 34.8694 93.321 35.008 93.3211 35.1486V42.9704H100.252V35.1486C100.252 35.008 100.286 34.8694 100.351 34.7446L100.497 34.4555H93.0755ZM99.8557 35.1486V42.5744H93.7171V35.1486C93.7172 35.0485 93.7053 34.9488 93.6814 34.8516H99.8914C99.8676 34.9488 99.8556 35.0485 99.8557 35.1486ZM101.788 34.4555L101.935 34.7446C102 34.8694 102.034 35.008 102.034 35.1486V42.9704H108.965V35.1486C108.965 35.008 108.999 34.8694 109.064 34.7446L109.21 34.4555H101.788ZM108.569 35.1486V42.5744H102.43V35.1486C102.43 35.0485 102.418 34.9488 102.394 34.8516H108.604C108.58 34.9488 108.569 35.0485 108.569 35.1486ZM110.501 34.4555L110.648 34.7446C110.713 34.8694 110.747 35.008 110.747 35.1486V42.9704H117.678V35.1486C117.678 35.008 117.712 34.8694 117.777 34.7446L117.923 34.4555H110.501ZM117.281 35.1486V42.5744H111.143V35.1486C111.143 35.0485 111.131 34.9488 111.107 34.8516H117.317C117.293 34.9488 117.281 35.0485 117.281 35.1486ZM119.214 34.4555L119.361 34.7446C119.426 34.8694 119.46 35.008 119.46 35.1486V42.9704H126.39V35.1486C126.39 35.008 126.424 34.8694 126.489 34.7446L126.636 34.4555H119.214ZM125.994 35.1486V42.5744H119.856V35.1486C119.856 35.0485 119.844 34.9488 119.82 34.8516H126.03C126.006 34.9488 125.994 35.0485 125.994 35.1486ZM127.927 34.4555L128.074 34.7446C128.139 34.8694 128.172 35.008 128.173 35.1486V42.9704H135.103V35.1486C135.103 35.008 135.137 34.8694 135.202 34.7446L135.349 34.4555H127.927ZM134.707 35.1486V42.5744H128.569V35.1486C128.569 35.0485 128.557 34.9488 128.533 34.8516H134.743C134.719 34.9488 134.707 35.0485 134.707 35.1486ZM58.224 34.4555L58.3706 34.7446C58.4355 34.8694 58.4695 35.008 58.4696 35.1486V42.9704H65.4003V35.1486C65.4004 35.008 65.4343 34.8694 65.4993 34.7446L65.6459 34.4555H58.224ZM65.0042 35.1486V42.5744H58.8656V35.1486C58.8657 35.0485 58.8538 34.9488 58.83 34.8516H65.0399C65.0161 34.9488 65.0041 35.0485 65.0042 35.1486ZM66.9369 34.4555L67.0835 34.7446C67.1484 34.8694 67.1824 35.008 67.1825 35.1486V42.9704H74.1132V35.1486C74.1132 35.008 74.1472 34.8694 74.2122 34.7446L74.3588 34.4555H66.9369ZM73.7171 35.1486V42.5744H67.5785V35.1486C67.5786 35.0485 67.5666 34.9488 67.5428 34.8516H73.7528C73.729 34.9488 73.717 35.0485 73.7171 35.1486ZM75.6498 34.4555L75.7963 34.7446C75.8613 34.8694 75.8952 35.008 75.8953 35.1486V42.9704H82.826V35.1486C82.8261 35.008 82.8601 34.8694 82.925 34.7446L83.0716 34.4555H75.6498ZM82.43 35.1486V42.5744H76.2914V35.1486C76.2915 35.0485 76.2795 34.9488 76.2557 34.8516H82.4657C82.4419 34.9488 82.4299 35.0485 82.43 35.1486ZM84.3626 34.4555L84.5092 34.7446C84.5742 34.8694 84.6081 35.008 84.6082 35.1486V42.9704H91.5389V35.1486C91.539 35.008 91.573 34.8694 91.6379 34.7446L91.7845 34.4555H84.3626ZM91.1429 35.1486V42.5744H85.0043V35.1486C85.0044 35.0485 84.9924 34.9488 84.9686 34.8516H91.1785C91.1547 34.9488 91.1428 35.0485 91.1429 35.1486ZM93.0755 34.4555L93.2221 34.7446C93.287 34.8694 93.321 35.008 93.3211 35.1486V42.9704H100.252V35.1486C100.252 35.008 100.286 34.8694 100.351 34.7446L100.497 34.4555H93.0755ZM99.8557 35.1486V42.5744H93.7171V35.1486C93.7172 35.0485 93.7053 34.9488 93.6814 34.8516H99.8914C99.8676 34.9488 99.8556 35.0485 99.8557 35.1486ZM101.788 34.4555L101.935 34.7446C102 34.8694 102.034 35.008 102.034 35.1486V42.9704H108.965V35.1486C108.965 35.008 108.999 34.8694 109.064 34.7446L109.21 34.4555H101.788ZM108.569 35.1486V42.5744H102.43V35.1486C102.43 35.0485 102.418 34.9488 102.394 34.8516H108.604C108.58 34.9488 108.569 35.0485 108.569 35.1486ZM110.501 34.4555L110.648 34.7446C110.713 34.8694 110.747 35.008 110.747 35.1486V42.9704H117.678V35.1486C117.678 35.008 117.712 34.8694 117.777 34.7446L117.923 34.4555H110.501ZM117.281 35.1486V42.5744H111.143V35.1486C111.143 35.0485 111.131 34.9488 111.107 34.8516H117.317C117.293 34.9488 117.281 35.0485 117.281 35.1486ZM119.214 34.4555L119.361 34.7446C119.426 34.8694 119.46 35.008 119.46 35.1486V42.9704H126.39V35.1486C126.39 35.008 126.424 34.8694 126.489 34.7446L126.636 34.4555H119.214ZM125.994 35.1486V42.5744H119.856V35.1486C119.856 35.0485 119.844 34.9488 119.82 34.8516H126.03C126.006 34.9488 125.994 35.0485 125.994 35.1486ZM127.927 34.4555L128.074 34.7446C128.139 34.8694 128.172 35.008 128.173 35.1486V42.9704H135.103V35.1486C135.103 35.008 135.137 34.8694 135.202 34.7446L135.349 34.4555H127.927ZM134.707 35.1486V42.5744H128.569V35.1486C128.569 35.0485 128.557 34.9488 128.533 34.8516H134.743C134.719 34.9488 134.707 35.0485 134.707 35.1486ZM58.224 34.4555L58.3706 34.7446C58.4355 34.8694 58.4695 35.008 58.4696 35.1486V42.9704H65.4003V35.1486C65.4004 35.008 65.4343 34.8694 65.4993 34.7446L65.6459 34.4555H58.224ZM65.0042 35.1486V42.5744H58.8656V35.1486C58.8657 35.0485 58.8538 34.9488 58.83 34.8516H65.0399C65.0161 34.9488 65.0041 35.0485 65.0042 35.1486ZM66.9369 34.4555L67.0835 34.7446C67.1484 34.8694 67.1824 35.008 67.1825 35.1486V42.9704H74.1132V35.1486C74.1132 35.008 74.1472 34.8694 74.2122 34.7446L74.3588 34.4555H66.9369ZM73.7171 35.1486V42.5744H67.5785V35.1486C67.5786 35.0485 67.5666 34.9488 67.5428 34.8516H73.7528C73.729 34.9488 73.717 35.0485 73.7171 35.1486ZM75.6498 34.4555L75.7963 34.7446C75.8613 34.8694 75.8952 35.008 75.8953 35.1486V42.9704H82.826V35.1486C82.8261 35.008 82.8601 34.8694 82.925 34.7446L83.0716 34.4555H75.6498ZM82.43 35.1486V42.5744H76.2914V35.1486C76.2915 35.0485 76.2795 34.9488 76.2557 34.8516H82.4657C82.4419 34.9488 82.4299 35.0485 82.43 35.1486ZM84.3626 34.4555L84.5092 34.7446C84.5742 34.8694 84.6081 35.008 84.6082 35.1486V42.9704H91.5389V35.1486C91.539 35.008 91.573 34.8694 91.6379 34.7446L91.7845 34.4555H84.3626ZM91.1429 35.1486V42.5744H85.0043V35.1486C85.0044 35.0485 84.9924 34.9488 84.9686 34.8516H91.1785C91.1547 34.9488 91.1428 35.0485 91.1429 35.1486ZM93.0755 34.4555L93.2221 34.7446C93.287 34.8694 93.321 35.008 93.3211 35.1486V42.9704H100.252V35.1486C100.252 35.008 100.286 34.8694 100.351 34.7446L100.497 34.4555H93.0755ZM99.8557 35.1486V42.5744H93.7171V35.1486C93.7172 35.0485 93.7053 34.9488 93.6814 34.8516H99.8914C99.8676 34.9488 99.8556 35.0485 99.8557 35.1486ZM101.788 34.4555L101.935 34.7446C102 34.8694 102.034 35.008 102.034 35.1486V42.9704H108.965V35.1486C108.965 35.008 108.999 34.8694 109.064 34.7446L109.21 34.4555H101.788ZM108.569 35.1486V42.5744H102.43V35.1486C102.43 35.0485 102.418 34.9488 102.394 34.8516H108.604C108.58 34.9488 108.569 35.0485 108.569 35.1486ZM110.501 34.4555L110.648 34.7446C110.713 34.8694 110.747 35.008 110.747 35.1486V42.9704H117.678V35.1486C117.678 35.008 117.712 34.8694 117.777 34.7446L117.923 34.4555H110.501ZM117.281 35.1486V42.5744H111.143V35.1486C111.143 35.0485 111.131 34.9488 111.107 34.8516H117.317C117.293 34.9488 117.281 35.0485 117.281 35.1486ZM119.214 34.4555L119.361 34.7446C119.426 34.8694 119.46 35.008 119.46 35.1486V42.9704H126.39V35.1486C126.39 35.008 126.424 34.8694 126.489 34.7446L126.636 34.4555H119.214ZM125.994 35.1486V42.5744H119.856V35.1486C119.856 35.0485 119.844 34.9488 119.82 34.8516H126.03C126.006 34.9488 125.994 35.0485 125.994 35.1486ZM127.927 34.4555L128.074 34.7446C128.139 34.8694 128.172 35.008 128.173 35.1486V42.9704H135.103V35.1486C135.103 35.008 135.137 34.8694 135.202 34.7446L135.349 34.4555H127.927ZM134.707 35.1486V42.5744H128.569V35.1486C128.569 35.0485 128.557 34.9488 128.533 34.8516H134.743C134.719 34.9488 134.707 35.0485 134.707 35.1486ZM58.224 34.4555L58.3706 34.7446C58.4355 34.8694 58.4695 35.008 58.4696 35.1486V42.9704H65.4003V35.1486C65.4004 35.008 65.4343 34.8694 65.4993 34.7446L65.6459 34.4555H58.224ZM65.0042 35.1486V42.5744H58.8656V35.1486C58.8657 35.0485 58.8538 34.9488 58.83 34.8516H65.0399C65.0161 34.9488 65.0041 35.0485 65.0042 35.1486ZM66.9369 34.4555L67.0835 34.7446C67.1484 34.8694 67.1824 35.008 67.1825 35.1486V42.9704H74.1132V35.1486C74.1132 35.008 74.1472 34.8694 74.2122 34.7446L74.3588 34.4555H66.9369ZM73.7171 35.1486V42.5744H67.5785V35.1486C67.5786 35.0485 67.5666 34.9488 67.5428 34.8516H73.7528C73.729 34.9488 73.717 35.0485 73.7171 35.1486ZM75.6498 34.4555L75.7963 34.7446C75.8613 34.8694 75.8952 35.008 75.8953 35.1486V42.9704H82.826V35.1486C82.8261 35.008 82.8601 34.8694 82.925 34.7446L83.0716 34.4555H75.6498ZM82.43 35.1486V42.5744H76.2914V35.1486C76.2915 35.0485 76.2795 34.9488 76.2557 34.8516H82.4657C82.4419 34.9488 82.4299 35.0485 82.43 35.1486ZM84.3626 34.4555L84.5092 34.7446C84.5742 34.8694 84.6081 35.008 84.6082 35.1486V42.9704H91.5389V35.1486C91.539 35.008 91.573 34.8694 91.6379 34.7446L91.7845 34.4555H84.3626ZM91.1429 35.1486V42.5744H85.0043V35.1486C85.0044 35.0485 84.9924 34.9488 84.9686 34.8516H91.1785C91.1547 34.9488 91.1428 35.0485 91.1429 35.1486ZM93.0755 34.4555L93.2221 34.7446C93.287 34.8694 93.321 35.008 93.3211 35.1486V42.9704H100.252V35.1486C100.252 35.008 100.286 34.8694 100.351 34.7446L100.497 34.4555H93.0755ZM99.8557 35.1486V42.5744H93.7171V35.1486C93.7172 35.0485 93.7053 34.9488 93.6814 34.8516H99.8914C99.8676 34.9488 99.8556 35.0485 99.8557 35.1486ZM101.788 34.4555L101.935 34.7446C102 34.8694 102.034 35.008 102.034 35.1486V42.9704H108.965V35.1486C108.965 35.008 108.999 34.8694 109.064 34.7446L109.21 34.4555H101.788ZM108.569 35.1486V42.5744H102.43V35.1486C102.43 35.0485 102.418 34.9488 102.394 34.8516H108.604C108.58 34.9488 108.569 35.0485 108.569 35.1486ZM110.501 34.4555L110.648 34.7446C110.713 34.8694 110.747 35.008 110.747 35.1486V42.9704H117.678V35.1486C117.678 35.008 117.712 34.8694 117.777 34.7446L117.923 34.4555H110.501ZM117.281 35.1486V42.5744H111.143V35.1486C111.143 35.0485 111.131 34.9488 111.107 34.8516H117.317C117.293 34.9488 117.281 35.0485 117.281 35.1486ZM119.214 34.4555L119.361 34.7446C119.426 34.8694 119.46 35.008 119.46 35.1486V42.9704H126.39V35.1486C126.39 35.008 126.424 34.8694 126.489 34.7446L126.636 34.4555H119.214ZM125.994 35.1486V42.5744H119.856V35.1486C119.856 35.0485 119.844 34.9488 119.82 34.8516H126.03C126.006 34.9488 125.994 35.0485 125.994 35.1486ZM127.927 34.4555L128.074 34.7446C128.139 34.8694 128.172 35.008 128.173 35.1486V42.9704H135.103V35.1486C135.103 35.008 135.137 34.8694 135.202 34.7446L135.349 34.4555H127.927ZM134.707 35.1486V42.5744H128.569V35.1486C128.569 35.0485 128.557 34.9488 128.533 34.8516H134.743C134.719 34.9488 134.707 35.0485 134.707 35.1486Z" fill="#3F3D56"/>
<path d="M81.767 69.109H67.1644C66.8569 69.1087 66.562 68.9863 66.3445 68.7689C66.1271 68.5514 66.0047 68.2565 66.0044 67.949V60.17C66.0047 59.8625 66.1271 59.5676 66.3445 59.3502C66.562 59.1327 66.8569 59.0104 67.1644 59.01H81.767C82.0746 59.0104 82.3694 59.1327 82.5869 59.3502C82.8044 59.5676 82.9267 59.8625 82.9271 60.17V67.949C82.9267 68.2565 82.8044 68.5514 82.5869 68.7689C82.3694 68.9863 82.0746 69.1087 81.767 69.109Z" fill="#CB2A42"/>
<path d="M103.989 69.109H89.3861C89.0786 69.1087 88.7837 68.9863 88.5662 68.7689C88.3488 68.5514 88.2264 68.2565 88.2261 67.949V60.17C88.2264 59.8625 88.3488 59.5676 88.5662 59.3502C88.7837 59.1327 89.0786 59.0104 89.3861 59.01H103.989C104.296 59.0104 104.591 59.1327 104.809 59.3502C105.026 59.5676 105.148 59.8625 105.149 60.17V67.949C105.148 68.2565 105.026 68.5514 104.809 68.7689C104.591 68.9863 104.296 69.1087 103.989 69.109Z" fill="#CB2A42"/>
<path d="M126.21 69.109H111.608C111.3 69.1087 111.005 68.9863 110.788 68.7689C110.57 68.5514 110.448 68.2565 110.448 67.949V60.17C110.448 59.8625 110.57 59.5676 110.788 59.3502C111.005 59.1327 111.3 59.0104 111.608 59.01H126.21C126.518 59.0104 126.813 59.1327 127.03 59.3502C127.248 59.5676 127.37 59.8625 127.37 60.17V67.949C127.37 68.2565 127.248 68.5514 127.03 68.7689C126.813 68.9863 126.518 69.1087 126.21 69.109Z" fill="#CB2A42"/>
<path d="M81.767 95.0494H67.1644C66.8569 95.0491 66.562 94.9268 66.3445 94.7093C66.1271 94.4918 66.0047 94.197 66.0044 93.8894V86.1105C66.0047 85.8029 66.1271 85.5081 66.3445 85.2906C66.562 85.0731 66.8569 84.9508 67.1644 84.9504H81.767C82.0746 84.9508 82.3694 85.0731 82.5869 85.2906C82.8044 85.5081 82.9267 85.8029 82.9271 86.1105V93.8894C82.9267 94.197 82.8044 94.4918 82.5869 94.7093C82.3694 94.9268 82.0746 95.0491 81.767 95.0494Z" fill="#CB2A42"/>
<path d="M103.989 95.0494H89.3861C89.0786 95.0491 88.7837 94.9268 88.5662 94.7093C88.3488 94.4918 88.2264 94.197 88.2261 93.8894V86.1105C88.2264 85.8029 88.3488 85.5081 88.5662 85.2906C88.7837 85.0731 89.0786 84.9508 89.3861 84.9504H103.989C104.296 84.9508 104.591 85.0731 104.809 85.2906C105.026 85.5081 105.148 85.8029 105.149 86.1105V93.8894C105.148 94.197 105.026 94.4918 104.809 94.7093C104.591 94.9268 104.296 95.0491 103.989 95.0494Z" fill="#CB2A42"/>
<path d="M126.21 95.0494H111.608C111.3 95.0491 111.005 94.9268 110.788 94.7093C110.57 94.4918 110.448 94.197 110.448 93.8894V86.1105C110.448 85.8029 110.57 85.5081 110.788 85.2906C111.005 85.0731 111.3 84.9508 111.608 84.9504H126.21C126.518 84.9508 126.813 85.0731 127.03 85.2906C127.248 85.5081 127.37 85.8029 127.37 86.1105V93.8894C127.37 94.197 127.248 94.4918 127.03 94.7093C126.813 94.9268 126.518 95.0491 126.21 95.0494Z" fill="#CB2A42"/>
<path d="M81.767 120.99H67.1644C66.8569 120.99 66.562 120.867 66.3445 120.65C66.1271 120.433 66.0047 120.138 66.0044 119.83V112.051C66.0047 111.744 66.1271 111.449 66.3445 111.231C66.562 111.014 66.8569 110.891 67.1644 110.891H81.767C82.0746 110.891 82.3694 111.014 82.5869 111.231C82.8044 111.449 82.9267 111.744 82.9271 112.051V119.83C82.9267 120.138 82.8044 120.433 82.5869 120.65C82.3694 120.867 82.0746 120.99 81.767 120.99Z" fill="#CB2A42"/>
<path d="M103.989 120.99H89.3861C89.0786 120.99 88.7837 120.867 88.5662 120.65C88.3488 120.433 88.2264 120.138 88.2261 119.83V112.051C88.2264 111.744 88.3488 111.449 88.5662 111.231C88.7837 111.014 89.0786 110.891 89.3861 110.891H103.989C104.296 110.891 104.591 111.014 104.809 111.231C105.026 111.449 105.148 111.744 105.149 112.051V119.83C105.148 120.138 105.026 120.433 104.809 120.65C104.591 120.867 104.296 120.99 103.989 120.99Z" fill="#CB2A42"/>
<path d="M126.21 120.99H111.608C111.3 120.99 111.005 120.867 110.788 120.65C110.57 120.433 110.448 120.138 110.448 119.83V112.051C110.448 111.744 110.57 111.449 110.788 111.231C111.005 111.014 111.3 110.891 111.608 110.891H126.21C126.518 110.891 126.813 111.014 127.03 111.231C127.248 111.449 127.37 111.744 127.37 112.051V119.83C127.37 120.138 127.248 120.433 127.03 120.65C126.813 120.867 126.518 120.99 126.21 120.99Z" fill="#CB2A42"/>
<path d="M79.403 70.107H62.4867C62.0779 70.1065 61.686 69.9439 61.3969 69.6548C61.1079 69.3658 60.9453 68.9739 60.9448 68.5651V59.5536C60.9453 59.1448 61.1079 58.7529 61.3969 58.4639C61.686 58.1748 62.0779 58.0122 62.4867 58.0117H79.403C79.8118 58.0122 80.2037 58.1748 80.4927 58.4639C80.7818 58.7529 80.9444 59.1448 80.9448 59.5536V68.5651C80.9444 68.9739 80.7818 69.3658 80.4927 69.6548C80.2037 69.9439 79.8118 70.1065 79.403 70.107ZM62.4867 58.4078C62.1829 58.4081 61.8916 58.5289 61.6768 58.7438C61.462 58.9586 61.3412 59.2498 61.3409 59.5536V68.5651C61.3412 68.8689 61.462 69.1601 61.6768 69.3749C61.8916 69.5898 62.1829 69.7106 62.4867 69.7109H79.403C79.7068 69.7106 79.998 69.5898 80.2128 69.3749C80.4276 69.1601 80.5485 68.8689 80.5488 68.5651V59.5536C80.5485 59.2498 80.4276 58.9586 80.2128 58.7438C79.998 58.5289 79.7068 58.4081 79.403 58.4078H62.4867Z" fill="#3F3D56"/>
<path d="M105.146 70.107H88.2294C87.8206 70.1065 87.4287 69.9439 87.1396 69.6548C86.8506 69.3658 86.688 68.9739 86.6875 68.5651V59.5536C86.688 59.1448 86.8506 58.7529 87.1396 58.4639C87.4287 58.1748 87.8206 58.0122 88.2294 58.0117H105.146C105.554 58.0122 105.946 58.1748 106.235 58.4639C106.524 58.7529 106.687 59.1448 106.688 59.5536V68.5651C106.687 68.9739 106.524 69.3658 106.235 69.6548C105.946 69.9439 105.554 70.1065 105.146 70.107ZM88.2294 58.4078C87.9256 58.4081 87.6343 58.5289 87.4195 58.7438C87.2047 58.9586 87.0839 59.2498 87.0835 59.5536V68.5651C87.0839 68.8689 87.2047 69.1601 87.4195 69.3749C87.6343 69.5898 87.9256 69.7106 88.2294 69.7109H105.146C105.449 69.7106 105.741 69.5898 105.956 69.3749C106.17 69.1601 106.291 68.8689 106.291 68.5651V59.5536C106.291 59.2498 106.17 58.9586 105.956 58.7438C105.741 58.5289 105.449 58.4081 105.146 58.4078H88.2294Z" fill="#3F3D56"/>
<path d="M130.888 70.107H113.972C113.563 70.1065 113.171 69.9439 112.882 69.6548C112.593 69.3658 112.43 68.9739 112.43 68.5651V59.5536C112.43 59.1448 112.593 58.7529 112.882 58.4639C113.171 58.1748 113.563 58.0122 113.972 58.0117H130.888C131.297 58.0122 131.689 58.1748 131.978 58.4639C132.267 58.7529 132.429 59.1448 132.43 59.5536V68.5651C132.429 68.9739 132.267 69.3658 131.978 69.6548C131.689 69.9439 131.297 70.1065 130.888 70.107ZM113.972 58.4078C113.668 58.4081 113.377 58.5289 113.162 58.7438C112.947 58.9586 112.826 59.2498 112.826 59.5536V68.5651C112.826 68.8689 112.947 69.1601 113.162 69.3749C113.377 69.5898 113.668 69.7106 113.972 69.7109H130.888C131.192 69.7106 131.483 69.5898 131.698 69.3749C131.913 69.1601 132.034 68.8689 132.034 68.5651V59.5536C132.034 59.2498 131.913 58.9586 131.698 58.7438C131.483 58.5289 131.192 58.4081 130.888 58.4078H113.972Z" fill="#3F3D56"/>
<path d="M79.403 96.0477H62.4867C62.0779 96.0472 61.686 95.8846 61.3969 95.5955C61.1079 95.3064 60.9453 94.9145 60.9448 94.5057V85.4943C60.9453 85.0855 61.1079 84.6936 61.3969 84.4045C61.686 84.1155 62.0779 83.9529 62.4867 83.9524H79.403C79.8118 83.9529 80.2037 84.1155 80.4927 84.4045C80.7818 84.6936 80.9444 85.0855 80.9448 85.4943V94.5057C80.9444 94.9145 80.7818 95.3065 80.4927 95.5955C80.2037 95.8846 79.8118 96.0472 79.403 96.0477ZM62.4867 84.3484C62.1829 84.3488 61.8916 84.4696 61.6768 84.6844C61.462 84.8993 61.3412 85.1905 61.3409 85.4943V94.5057C61.3412 94.8095 61.462 95.1008 61.6768 95.3156C61.8916 95.5304 62.1829 95.6513 62.4867 95.6516H79.403C79.7068 95.6513 79.998 95.5304 80.2128 95.3156C80.4276 95.1008 80.5485 94.8095 80.5488 94.5057V85.4943C80.5485 85.1905 80.4276 84.8992 80.2128 84.6844C79.998 84.4696 79.7068 84.3488 79.403 84.3484H62.4867Z" fill="#3F3D56"/>
<path d="M105.146 96.0477H88.2294C87.8206 96.0472 87.4287 95.8846 87.1396 95.5955C86.8506 95.3065 86.688 94.9145 86.6875 94.5057V85.4943C86.688 85.0855 86.8506 84.6936 87.1396 84.4045C87.4287 84.1155 87.8206 83.9529 88.2294 83.9524H105.146C105.554 83.9529 105.946 84.1155 106.235 84.4045C106.524 84.6936 106.687 85.0855 106.688 85.4943V94.5057C106.687 94.9145 106.524 95.3064 106.235 95.5955C105.946 95.8846 105.554 96.0472 105.146 96.0477ZM88.2294 84.3484C87.9256 84.3488 87.6343 84.4696 87.4195 84.6844C87.2047 84.8992 87.0839 85.1905 87.0835 85.4943V94.5057C87.0839 94.8095 87.2047 95.1008 87.4195 95.3156C87.6343 95.5304 87.9256 95.6513 88.2294 95.6516H105.146C105.449 95.6513 105.741 95.5304 105.956 95.3156C106.17 95.1008 106.291 94.8095 106.291 94.5057V85.4943C106.291 85.1905 106.17 84.8992 105.956 84.6844C105.741 84.4696 105.449 84.3488 105.146 84.3484H88.2294Z" fill="#3F3D56"/>
<path d="M130.888 96.0477H113.972C113.563 96.0472 113.171 95.8846 112.882 95.5955C112.593 95.3065 112.43 94.9145 112.43 94.5057V85.4943C112.43 85.0855 112.593 84.6936 112.882 84.4045C113.171 84.1155 113.563 83.9529 113.972 83.9524H130.888C131.297 83.9529 131.689 84.1155 131.978 84.4045C132.267 84.6936 132.429 85.0855 132.43 85.4943V94.5057C132.429 94.9145 132.267 95.3064 131.978 95.5955C131.689 95.8846 131.297 96.0472 130.888 96.0477ZM113.972 84.3484C113.668 84.3488 113.377 84.4696 113.162 84.6844C112.947 84.8992 112.826 85.1905 112.826 85.4943V94.5057C112.826 94.8095 112.947 95.1008 113.162 95.3156C113.377 95.5304 113.668 95.6513 113.972 95.6516H130.888C131.192 95.6513 131.483 95.5304 131.698 95.3156C131.913 95.1008 132.034 94.8095 132.034 94.5057V85.4943C132.034 85.1905 131.913 84.8992 131.698 84.6844C131.483 84.4696 131.192 84.3488 130.888 84.3484H113.972Z" fill="#3F3D56"/>
<path d="M79.403 121.988H62.4867C62.0779 121.988 61.686 121.825 61.3969 121.536C61.1079 121.247 60.9453 120.855 60.9448 120.446V111.435C60.9453 111.026 61.1079 110.634 61.3969 110.345C61.686 110.056 62.0779 109.894 62.4867 109.893H79.403C79.8118 109.894 80.2037 110.056 80.4927 110.345C80.7818 110.634 80.9444 111.026 80.9448 111.435V120.446C80.9444 120.855 80.7818 121.247 80.4927 121.536C80.2037 121.825 79.8118 121.988 79.403 121.988ZM62.4867 110.289C62.1829 110.289 61.8916 110.41 61.6768 110.625C61.462 110.84 61.3412 111.131 61.3409 111.435V120.446C61.3412 120.75 61.462 121.041 61.6768 121.256C61.8916 121.471 62.1829 121.592 62.4867 121.592H79.403C79.7068 121.592 79.998 121.471 80.2128 121.256C80.4276 121.041 80.5485 120.75 80.5488 120.446V111.435C80.5485 111.131 80.4276 110.84 80.2128 110.625C79.998 110.41 79.7068 110.289 79.403 110.289H62.4867Z" fill="#3F3D56"/>
<path d="M105.146 121.988H88.2294C87.8206 121.988 87.4287 121.825 87.1396 121.536C86.8506 121.247 86.688 120.855 86.6875 120.446V111.435C86.688 111.026 86.8506 110.634 87.1396 110.345C87.4287 110.056 87.8206 109.894 88.2294 109.893H105.146C105.554 109.894 105.946 110.056 106.235 110.345C106.524 110.634 106.687 111.026 106.688 111.435V120.446C106.687 120.855 106.524 121.247 106.235 121.536C105.946 121.825 105.554 121.988 105.146 121.988ZM88.2294 110.289C87.9256 110.289 87.6343 110.41 87.4195 110.625C87.2047 110.84 87.0839 111.131 87.0835 111.435V120.446C87.0839 120.75 87.2047 121.041 87.4195 121.256C87.6343 121.471 87.9256 121.592 88.2294 121.592H105.146C105.449 121.592 105.741 121.471 105.956 121.256C106.17 121.041 106.291 120.75 106.291 120.446V111.435C106.291 111.131 106.17 110.84 105.956 110.625C105.741 110.41 105.449 110.289 105.146 110.289H88.2294Z" fill="#3F3D56"/>
<path d="M130.888 121.988H113.972C113.563 121.988 113.171 121.825 112.882 121.536C112.593 121.247 112.43 120.855 112.43 120.446V111.435C112.43 111.026 112.593 110.634 112.882 110.345C113.171 110.056 113.563 109.894 113.972 109.893H130.888C131.297 109.894 131.689 110.056 131.978 110.345C132.267 110.634 132.429 111.026 132.43 111.435V120.446C132.429 120.855 132.267 121.247 131.978 121.536C131.689 121.825 131.297 121.988 130.888 121.988ZM113.972 110.289C113.668 110.289 113.377 110.41 113.162 110.625C112.947 110.84 112.826 111.131 112.826 111.435V120.446C112.826 120.75 112.947 121.041 113.162 121.256C113.377 121.471 113.668 121.592 113.972 121.592H130.888C131.192 121.592 131.483 121.471 131.698 121.256C131.913 121.041 132.034 120.75 132.034 120.446V111.435C132.034 111.131 131.913 110.84 131.698 110.625C131.483 110.41 131.192 110.289 130.888 110.289H113.972Z" fill="#3F3D56"/>
<path d="M199.802 152.574H0.19802C0.145502 152.574 0.0951344 152.553 0.0579985 152.516C0.0208626 152.479 0 152.429 0 152.376C0 152.324 0.0208626 152.273 0.0579985 152.236C0.0951344 152.199 0.145502 152.178 0.19802 152.178H199.802C199.854 152.178 199.905 152.199 199.942 152.236C199.979 152.273 200 152.324 200 152.376C200 152.429 199.979 152.479 199.942 152.516C199.905 152.553 199.854 152.574 199.802 152.574Z" fill="#3F3D56"/>
<path d="M106.688 133.408C106.693 132.956 106.519 132.52 106.203 132.197C105.887 131.874 105.456 131.689 105.004 131.683H96.6875V152.178H106.688V133.408Z" fill="#3F3D56"/>
<path d="M96.8855 151.98H86.4895V133.465C86.4901 132.967 86.6884 132.489 87.0411 132.136C87.3938 131.783 87.8719 131.585 88.3707 131.584H96.8855V151.98ZM86.8855 151.584H96.4895V131.98H88.3707C87.9769 131.981 87.5994 132.137 87.321 132.416C87.0426 132.694 86.886 133.072 86.8855 133.465V151.584Z" fill="#3F3D56"/>
<path d="M87.7767 143.168C88.1048 143.168 88.3707 142.902 88.3707 142.574C88.3707 142.246 88.1048 141.98 87.7767 141.98C87.4486 141.98 87.1826 142.246 87.1826 142.574C87.1826 142.902 87.4486 143.168 87.7767 143.168Z" fill="#3F3D56"/>
</g>
<defs>
<clipPath id="clip0_512_963">
<rect width="200" height="152.587" fill="white"/>
</clipPath>
</defs>
</svg>
