<svg width="919" height="433" viewBox="0 0 919 433" fill="none" xmlns="http://www.w3.org/2000/svg">
<g clip-path="url(#clip0_512_1004)">
<path d="M184.392 306.4C181.685 306.403 179.09 307.48 177.176 309.394C175.262 311.308 174.185 313.903 174.182 316.61V340.496C174.185 343.203 175.262 345.798 177.176 347.712C179.09 349.626 181.685 350.702 184.392 350.706H197.341C200.048 350.702 202.643 349.626 204.557 347.712C206.471 345.798 207.548 343.203 207.551 340.496V316.61C207.548 313.903 206.471 311.308 204.557 309.394C202.643 307.48 200.048 306.403 197.341 306.4H184.392Z" fill="#3F3D56"/>
<path d="M423.773 351.5H410.823C407.905 351.497 405.108 350.336 403.045 348.273C400.982 346.21 399.822 343.413 399.819 340.496V316.61C399.822 313.693 400.982 310.896 403.045 308.833C405.108 306.77 407.905 305.609 410.823 305.606H423.773C426.69 305.609 429.487 306.77 431.55 308.833C433.613 310.896 434.773 313.693 434.777 316.61V340.496C434.773 343.413 433.613 346.21 431.55 348.273C429.487 350.336 426.69 351.497 423.773 351.5Z" fill="#3F3D56"/>
<path d="M415.18 332.375H192.19C182.041 332.375 173.785 326.393 173.785 319.039V276.159L184.853 264.503H424.67L433.585 276.183V319.039C433.585 326.393 425.329 332.375 415.18 332.375Z" fill="#CCCCCC"/>
<path d="M423.629 285.954H186.125L183.711 248.945L185.247 245.158L194.175 223.189H413.972L426.043 248.136L423.629 285.954Z" fill="#CCCCCC"/>
<path d="M425.64 248.216L423.868 276.023H371.614V255.366L424.154 245.149L425.64 248.216Z" fill="white"/>
<path d="M237.345 255.366V276.023H185.877L184.113 249.01L185.615 245.308L237.345 255.366Z" fill="white"/>
<path d="M412.647 229.545H195.497L218.657 152.343C219.602 149.155 221.547 146.355 224.206 144.357C226.864 142.359 230.095 141.27 233.42 141.25L377.231 139.88C380.706 139.846 384.092 140.976 386.85 143.09C389.609 145.204 391.58 148.18 392.45 151.544L412.647 229.545Z" fill="#CCCCCC"/>
<path d="M395.93 222.245L212.178 220.066C211.946 220.063 211.717 220.006 211.511 219.899C211.305 219.792 211.127 219.638 210.991 219.449C210.855 219.261 210.766 219.043 210.729 218.814C210.693 218.584 210.711 218.349 210.782 218.128L228.397 163.168C228.493 162.868 228.682 162.607 228.936 162.422C229.19 162.236 229.497 162.136 229.811 162.136H377.607C377.921 162.136 378.228 162.236 378.482 162.421C378.736 162.607 378.924 162.868 379.021 163.167L397.362 220.307C397.434 220.531 397.451 220.769 397.413 221.001C397.375 221.233 397.282 221.453 397.142 221.642C397.003 221.832 396.82 221.985 396.609 222.09C396.398 222.195 396.166 222.248 395.93 222.245Z" fill="white"/>
<path d="M328.836 149.301H279.308C278.891 149.301 278.512 148.89 278.32 148.228C278.128 147.551 278.156 146.83 278.399 146.169L282.483 135.841C282.691 135.314 283.031 135 283.392 135H324.752C325.113 135 325.453 135.314 325.661 135.841L329.745 146.169C329.988 146.83 330.015 147.551 329.824 148.228C329.632 148.89 329.253 149.301 328.836 149.301Z" fill="#CB2A42"/>
<path d="M195.633 227.956H163.059V220.796C163.062 218.482 163.982 216.263 165.619 214.626C167.256 212.989 169.475 212.069 171.789 212.066H195.633V227.956Z" fill="#CCCCCC"/>
<path d="M445.105 227.956H412.531V212.066H436.375C438.69 212.069 440.909 212.989 442.545 214.626C444.182 216.263 445.103 218.482 445.105 220.796V227.956Z" fill="#CCCCCC"/>
<path d="M159.248 339.567L0.000976562 396.774L0.676992 398.656L159.924 341.449L159.248 339.567Z" fill="#3F3D56"/>
<path d="M447.912 339.571L447.236 341.453L606.488 398.646L607.164 396.764L447.912 339.571Z" fill="#3F3D56"/>
<path d="M312.931 381.051H303.399V368.739H312.931V381.051ZM312.931 356.426H303.399V344.115H312.931V356.426Z" fill="#E6E6E6"/>
<path d="M312.931 432.051H303.399V419.739H312.931V432.051ZM312.931 407.426H303.399V395.115H312.931V407.426Z" fill="#E6E6E6"/>
<path d="M731.758 389.521H721.26L716.264 349.028H731.758V389.521Z" fill="#FFB8B8"/>
<path d="M734.436 399.698H700.585V399.269C700.589 395.776 701.978 392.427 704.448 389.957C706.919 387.487 710.268 386.097 713.761 386.094H734.436L734.436 399.698Z" fill="#2F2E41"/>
<path d="M867.137 369.628L858.138 375.035L833.001 342.898L846.282 334.918L867.137 369.628Z" fill="#FFB8B8"/>
<path d="M845.658 394.406L845.437 394.039C843.642 391.042 843.108 387.456 843.953 384.067C844.798 380.677 846.953 377.761 849.945 375.959L867.668 365.311L874.674 376.972L845.658 394.406Z" fill="#2F2E41"/>
<path d="M734.488 381.165L734.307 381.164C729.2 381.148 724.097 380.854 719.022 380.284C717.088 380.093 714.989 379.886 712.461 379.678L712.374 379.662C710.649 379.149 710.601 362.972 711.333 307.597C711.707 279.234 712.132 247.087 711.626 226.615L711.621 226.414L711.773 226.281C730.501 209.993 754.551 203.887 779.493 209.089L779.678 209.127L779.774 209.29C790.092 226.748 805.671 251.894 820.736 276.214C855.32 332.04 865.212 348.458 864.128 349.697L863.997 349.798C861.635 350.978 859.862 351.887 858.355 352.661C853.307 355.249 851.218 356.32 839.992 360.943L839.714 361.057L839.512 360.835C804.421 322.383 775.219 279.43 757.156 239.722C755.046 253.278 752.484 270.98 749.777 289.683C741.993 343.465 736.732 378.879 734.614 381.036L734.488 381.165Z" fill="#2F2E41"/>
<path d="M788.991 54.9029C792.525 40.311 795.519 23.8528 788.854 10.4135C784.229 1.08856 767.122 -2.05165 757.315 1.30774C747.508 4.66713 740.418 13.7814 737.299 23.7188C734.181 33.6563 734.543 44.3646 735.902 54.6953C753.939 54.3488 771.975 54.0023 788.991 54.9029Z" fill="#2F2E41"/>
<path d="M758.554 54.899C770.17 54.899 779.586 45.4827 779.586 33.867C779.586 22.2514 770.17 12.8351 758.554 12.8351C746.939 12.8351 737.522 22.2514 737.522 33.867C737.522 45.4827 746.939 54.899 758.554 54.899Z" fill="#FFB8B8"/>
<path d="M784.266 29.5346C784.332 25.9948 783.687 22.4777 782.368 19.1923C781.048 15.9069 779.082 12.9202 776.586 10.4096C774.09 7.89907 771.114 5.91591 767.836 4.57798C764.559 3.24005 761.045 2.57465 757.505 2.62131C753.965 2.66798 750.471 3.42577 747.229 4.84965C743.988 6.27352 741.065 8.33443 738.636 10.9099C736.207 13.4854 734.32 16.5229 733.088 19.842C731.856 23.161 731.303 26.6939 731.464 30.2307C749.465 30.2689 767.467 30.3071 784.266 29.5346Z" fill="#2F2E41"/>
<path d="M743.943 230.752C764.867 230.658 785.653 234.138 805.406 241.042C806.094 207.889 794.68 174.675 774.043 149.827L773.888 149.641L773.967 149.413C779.48 133.486 785.177 117.023 790.268 100.641L790.191 100.366C786.62 87.6722 778.957 74.8451 766.762 61.1507C765.439 59.7803 763.644 58.9641 761.742 58.8678C759.839 58.7714 757.972 59.402 756.517 60.6318C734.841 80.5027 723.055 110.275 725.759 138.332L725.767 138.415L725.743 138.495C716.194 170.845 712.728 187.461 709.669 202.121C707.438 212.816 705.507 222.076 701.628 235.307C715.53 232.282 729.716 230.755 743.943 230.752Z" fill="#3F3D56"/>
<path opacity="0.1" d="M774.749 128.486L743.685 196.115L725.939 178.152L774.749 128.486Z" fill="black"/>
<path d="M705.023 166.05L707.189 170.258C707.209 170.297 707.212 170.343 707.199 170.384C707.186 170.426 707.156 170.46 707.118 170.481L707.013 170.534L718.296 192.457C718.608 193.064 718.666 193.77 718.458 194.42C718.25 195.069 717.792 195.61 717.186 195.922L703.487 202.972C703.187 203.126 702.859 203.22 702.522 203.248C702.186 203.276 701.847 203.237 701.525 203.134C701.204 203.031 700.905 202.866 700.648 202.647C700.39 202.429 700.178 202.162 700.023 201.862L689.136 180.707L689.061 180.746C689.033 180.76 689.001 180.763 688.972 180.754C688.942 180.745 688.918 180.724 688.904 180.697L687.671 178.301C687.664 178.288 687.66 178.273 687.658 178.258C687.657 178.242 687.659 178.227 687.664 178.212C687.668 178.198 687.676 178.184 687.686 178.173C687.696 178.161 687.708 178.151 687.721 178.144L687.797 178.105L687.333 177.203L687.256 177.242C687.228 177.257 687.194 177.26 687.163 177.25C687.132 177.24 687.107 177.218 687.092 177.189L685.876 174.827C685.862 174.798 685.859 174.765 685.869 174.734C685.878 174.703 685.9 174.678 685.929 174.663L686.005 174.624L685.371 173.392L685.294 173.432C685.268 173.445 685.239 173.448 685.211 173.439C685.184 173.43 685.161 173.411 685.148 173.386L684.485 172.096C684.471 172.071 684.469 172.041 684.478 172.013C684.486 171.986 684.505 171.963 684.531 171.95L684.609 171.91L683.265 169.3C682.953 168.693 682.895 167.987 683.103 167.338C683.311 166.688 683.768 166.148 684.375 165.836L698.073 158.786C698.68 158.474 699.386 158.415 700.035 158.623C700.685 158.831 701.225 159.289 701.538 159.895L704.696 166.032L704.801 165.979C704.84 165.959 704.885 165.955 704.926 165.968C704.968 165.982 705.003 166.011 705.023 166.05Z" fill="#3F3D56"/>
<path d="M700.675 160.912L717.298 193.211C717.496 193.596 717.533 194.043 717.401 194.455C717.269 194.867 716.978 195.21 716.594 195.408L703.481 202.157C703.097 202.355 702.65 202.393 702.238 202.262C701.826 202.131 701.484 201.841 701.285 201.457L701.283 201.453L684.66 169.154C684.562 168.963 684.502 168.755 684.485 168.542C684.467 168.328 684.491 168.113 684.557 167.909C684.622 167.705 684.727 167.516 684.866 167.352C685.004 167.189 685.174 167.054 685.364 166.956L687.327 165.946L687.456 166.198C687.537 166.354 687.648 166.494 687.783 166.608C687.917 166.722 688.073 166.809 688.241 166.862C688.409 166.916 688.586 166.937 688.762 166.922C688.938 166.907 689.11 166.858 689.266 166.778L695.935 163.345C696.252 163.182 696.491 162.9 696.6 162.561C696.709 162.221 696.678 161.852 696.515 161.535L696.386 161.284L698.477 160.207C698.862 160.009 699.309 159.972 699.722 160.104C700.134 160.236 700.477 160.526 700.675 160.911L700.675 160.912Z" fill="#CB2A42"/>
<path d="M705.493 200.371C706.749 200.284 707.97 199.922 709.071 199.312C710.172 198.701 711.126 197.857 711.865 196.838C712.604 195.819 713.111 194.65 713.35 193.414C713.589 192.178 713.554 190.905 713.247 189.684L738.843 172.914L724.245 166.608L702.177 183.5C700.16 184.151 698.452 185.519 697.376 187.345C696.301 189.171 695.933 191.329 696.341 193.408C696.75 195.488 697.907 197.345 699.594 198.629C701.281 199.912 703.38 200.532 705.493 200.371Z" fill="#FFB8B8"/>
<path d="M730.122 188.29L729.799 188.062C723.708 183.578 716.945 178.942 710.405 174.458L710.012 174.188L710.322 173.826C724.281 157.494 738.255 140.435 751.771 123.933C751.761 123.907 751.752 123.887 751.745 123.874L751.872 123.809L751.926 123.743L751.955 123.767L752.037 123.726L751.668 123.754L747.502 91.0837C743.74 85.9504 743.019 75.7587 747.95 68.6443C753.058 61.2745 763.864 58.808 771.077 63.3638C772.966 64.6323 774.546 66.3093 775.699 68.271C776.853 70.2326 777.55 72.4285 777.74 74.6962C778.008 76.7165 777.821 78.771 777.194 80.7099C776.566 82.6488 775.513 84.423 774.112 85.9031C775.883 103.193 775.951 118.647 776.017 133.596L776.017 133.745L775.925 133.868C761.516 152.174 745.688 170.383 730.381 187.992L730.122 188.29Z" fill="#3F3D56"/>
<path d="M303.795 99.1011C329.912 99.1011 351.085 77.9286 351.085 51.8111C351.085 25.6936 329.912 4.52112 303.795 4.52112C277.677 4.52112 256.505 25.6936 256.505 51.8111C256.505 77.9286 277.677 99.1011 303.795 99.1011Z" fill="#CB2A42"/>
<path d="M299.288 71.773L285.134 53.574L293.365 47.172L300.067 55.789L322.707 31.889L330.278 39.062L299.288 71.773Z" fill="white"/>
<path d="M917.582 401H678.582C678.317 401 678.062 400.895 677.875 400.707C677.687 400.52 677.582 400.265 677.582 400C677.582 399.735 677.687 399.48 677.875 399.293C678.062 399.105 678.317 399 678.582 399H917.582C917.847 399 918.102 399.105 918.289 399.293C918.477 399.48 918.582 399.735 918.582 400C918.582 400.265 918.477 400.52 918.289 400.707C918.102 400.895 917.847 401 917.582 401Z" fill="#3F3D56"/>
</g>
<defs>
<clipPath id="clip0_512_1004">
<rect width="918.582" height="432.051" fill="white"/>
</clipPath>
</defs>
</svg>
