<svg width="606" height="762" viewBox="0 0 606 762" fill="none" xmlns="http://www.w3.org/2000/svg">
<g clip-path="url(#clip0_512_950)">
<path d="M550.14 79.3799C559 86.4334 566.358 95.1895 571.78 105.132C577.202 115.074 580.579 126.002 581.71 137.27C581.877 138.947 582.673 140.5 583.939 141.613C585.204 142.727 586.845 143.319 588.53 143.27L598.77 142.97C599.684 142.944 600.583 142.73 601.412 142.343C602.24 141.955 602.98 141.401 603.586 140.716C604.191 140.031 604.65 139.228 604.933 138.359C605.216 137.489 605.317 136.57 605.23 135.66C602.601 107.87 589.377 82.159 568.301 63.857C547.225 45.5551 519.914 36.0669 492.03 37.3599C491.116 37.4022 490.221 37.6314 489.4 38.0333C488.578 38.4353 487.847 39.0015 487.253 39.6969C486.659 40.3923 486.214 41.2021 485.945 42.0764C485.676 42.9507 485.589 43.8708 485.69 44.7799L486.83 54.9599C487.013 56.6293 487.821 58.1675 489.092 59.2656C490.363 60.3637 492.002 60.9404 493.68 60.8799C514.115 60.0352 534.167 66.6055 550.14 79.3799Z" fill="#CB2A42"/>
<path d="M541.97 89.6199C526.286 77.0645 506.653 70.487 486.57 71.0599C485.649 71.0886 484.743 71.308 483.91 71.7043C483.078 72.1006 482.337 72.6652 481.733 73.3624C481.13 74.0597 480.678 74.8744 480.405 75.7552C480.133 76.636 480.046 77.5638 480.15 78.4799L481 86.0699C481.184 87.7189 481.977 89.2399 483.224 90.3349C484.471 91.4299 486.081 92.0201 487.74 91.9899C503.574 91.7107 518.952 97.2986 530.914 107.678C542.875 118.057 550.575 132.494 552.53 148.21C552.727 149.864 553.534 151.385 554.794 152.475C556.053 153.564 557.675 154.144 559.34 154.1L566.97 153.88C567.89 153.856 568.795 153.642 569.628 153.251C570.461 152.86 571.204 152.301 571.81 151.608C572.416 150.916 572.872 150.105 573.149 149.228C573.426 148.35 573.518 147.425 573.42 146.51C572.176 135.425 568.758 124.694 563.361 114.932C557.965 105.17 550.696 96.5688 541.97 89.6199Z" fill="#CB2A42"/>
<path d="M510.11 129.54C519.325 136.882 525.446 147.418 527.26 159.06C527.494 160.688 528.316 162.173 529.571 163.236C530.825 164.299 532.426 164.866 534.07 164.83L537.76 164.72C538.706 164.691 539.634 164.462 540.485 164.048C541.336 163.633 542.089 163.043 542.694 162.317C543.3 161.59 543.745 160.743 543.999 159.832C544.254 158.92 544.312 157.965 544.17 157.03C541.934 141.822 534.312 127.922 522.691 117.861C511.069 107.799 496.222 102.245 480.85 102.21C479.918 102.22 478.999 102.427 478.153 102.815C477.306 103.204 476.551 103.767 475.936 104.467C475.321 105.166 474.86 105.988 474.584 106.877C474.307 107.767 474.22 108.705 474.33 109.63L474.74 113.31C474.935 114.943 475.722 116.447 476.951 117.54C478.179 118.632 479.766 119.237 481.41 119.24C491.856 119.384 501.956 123.008 510.11 129.54Z" fill="#CB2A42"/>
<path d="M55.12 79.3799C46.2601 86.4334 38.9022 95.1895 33.4801 105.132C28.0581 115.074 24.6817 126.002 23.55 137.27C23.3837 138.947 22.5873 140.5 21.3217 141.613C20.056 142.727 18.4151 143.319 16.73 143.27L6.49002 142.97C5.57582 142.944 4.6767 142.73 3.84836 142.343C3.02002 141.955 2.28013 141.401 1.6745 140.716C1.06887 140.031 0.610413 139.228 0.327545 138.359C0.0446775 137.489 -0.0565952 136.57 0.0300296 135.66C2.6591 107.87 15.8828 82.159 36.9589 63.857C58.035 45.5551 85.3465 36.0669 113.23 37.3599C114.144 37.4022 115.039 37.6314 115.861 38.0333C116.682 38.4353 117.413 39.0015 118.007 39.6969C118.601 40.3923 119.046 41.2021 119.315 42.0764C119.584 42.9507 119.671 43.8708 119.57 44.7799L118.43 54.9399C118.247 56.6093 117.439 58.1475 116.168 59.2456C114.897 60.3437 113.258 60.9204 111.58 60.8599C91.1422 60.0208 71.09 66.5984 55.12 79.3799Z" fill="#CB2A42"/>
<path d="M63.29 89.6199C78.9742 77.0645 98.6075 70.487 118.69 71.0599C119.612 71.0886 120.517 71.308 121.35 71.7043C122.182 72.1006 122.923 72.6652 123.527 73.3624C124.13 74.0597 124.582 74.8744 124.855 75.7552C125.127 76.636 125.214 77.5638 125.11 78.4799L124.26 86.0699C124.076 87.7189 123.283 89.2399 122.036 90.3349C120.79 91.4299 119.179 92.0201 117.52 91.9899C101.686 91.7107 86.3075 97.2986 74.3461 107.678C62.3846 118.057 54.6852 132.494 52.73 148.21C52.5336 149.864 51.7263 151.385 50.4664 152.475C49.2066 153.564 47.5851 154.144 45.92 154.1L38.29 153.88C37.3701 153.856 36.4651 153.642 35.632 153.251C34.799 152.86 34.0561 152.301 33.45 151.608C32.844 150.916 32.388 150.105 32.1109 149.228C31.8338 148.35 31.7415 147.425 31.84 146.51C33.084 135.425 36.5021 124.694 41.8988 114.932C47.2954 105.17 54.5645 96.5688 63.29 89.6199Z" fill="#CB2A42"/>
<path d="M95.15 129.54C85.9353 136.882 79.8145 147.418 78 159.06C77.7659 160.688 76.9438 162.173 75.6892 163.236C74.4345 164.299 72.8341 164.866 71.19 164.83L67.5 164.72C66.5544 164.691 65.6256 164.462 64.775 164.048C63.9244 163.633 63.1713 163.043 62.5656 162.317C61.9598 161.59 61.515 160.743 61.2607 159.832C61.0063 158.92 60.9482 157.965 61.09 157.03C63.3256 141.822 70.9479 127.922 82.5693 117.861C94.1906 107.799 109.038 102.245 124.41 102.21C125.342 102.22 126.261 102.427 127.107 102.815C127.954 103.204 128.709 103.767 129.324 104.467C129.939 105.166 130.4 105.988 130.676 106.877C130.953 107.767 131.04 108.705 130.93 109.63L130.52 113.31C130.325 114.943 129.538 116.447 128.309 117.54C127.081 118.632 125.494 119.237 123.85 119.24C113.404 119.384 103.304 123.008 95.15 129.54Z" fill="#CB2A42"/>
<path d="M280.56 753.65V18.99C280.56 13.9509 282.562 9.11815 286.125 5.55496C289.688 1.99177 294.521 -0.0100098 299.56 -0.0100098H310.82C315.859 -0.0100098 320.692 1.99177 324.255 5.55496C327.818 9.11815 329.82 13.9509 329.82 18.99V753.65C329.8 764.09 280.56 764.09 280.56 753.65Z" fill="#535461"/>
<path d="M443.33 148.23H165.32C140.821 148.23 120.96 168.091 120.96 192.59V408.43C120.96 432.929 140.821 452.79 165.32 452.79H443.33C467.829 452.79 487.69 432.929 487.69 408.43V192.59C487.69 168.091 467.829 148.23 443.33 148.23Z" fill="url(#paint0_linear_512_950)"/>
<path d="M439.39 152.71H169.8C145.301 152.71 125.44 172.571 125.44 197.07V403.96C125.44 428.459 145.301 448.32 169.8 448.32H439.39C463.889 448.32 483.75 428.459 483.75 403.96V197.07C483.75 172.571 463.889 152.71 439.39 152.71Z" fill="white"/>
<path d="M321.1 275.35C322.359 275.353 323.566 275.854 324.456 276.744C325.346 277.634 325.847 278.841 325.85 280.1V320.93C325.847 322.189 325.346 323.396 324.456 324.286C323.566 325.176 322.359 325.677 321.1 325.68H284.16C282.901 325.677 281.694 325.176 280.804 324.286C279.914 323.396 279.413 322.189 279.41 320.93V280.1C279.413 278.841 279.914 277.634 280.804 276.744C281.694 275.854 282.901 275.353 284.16 275.35H321.11M321.11 273.35H284.16C282.37 273.35 280.653 274.061 279.387 275.327C278.121 276.593 277.41 278.31 277.41 280.1V320.93C277.41 322.72 278.121 324.437 279.387 325.703C280.653 326.969 282.37 327.68 284.16 327.68H321.11C322.9 327.68 324.617 326.969 325.883 325.703C327.149 324.437 327.86 322.72 327.86 320.93V280.1C327.86 278.31 327.149 276.593 325.883 275.327C324.617 274.061 322.9 273.35 321.11 273.35Z" fill="#E0E0E0"/>
<path d="M302.63 288.42V299.88" stroke="#6C63FF" stroke-width="2" stroke-miterlimit="10" stroke-linecap="round"/>
<path d="M307.43 293.44C309.442 294.514 311.036 296.231 311.957 298.318C312.877 300.405 313.071 302.74 312.507 304.95C311.943 307.16 310.654 309.117 308.847 310.507C307.039 311.898 304.817 312.642 302.536 312.62C300.256 312.598 298.048 311.812 296.267 310.387C294.486 308.962 293.235 306.981 292.714 304.761C292.192 302.54 292.43 300.209 293.391 298.141C294.351 296.072 295.977 294.385 298.01 293.35" stroke="#6C63FF" stroke-width="2" stroke-miterlimit="10" stroke-linecap="round"/>
</g>
<defs>
<linearGradient id="paint0_linear_512_950" x1="304.32" y1="452.8" x2="304.32" y2="148.23" gradientUnits="userSpaceOnUse">
<stop stop-color="#808080" stop-opacity="0.25"/>
<stop offset="0.54" stop-color="#808080" stop-opacity="0.12"/>
<stop offset="1" stop-color="#808080" stop-opacity="0.1"/>
</linearGradient>
<clipPath id="clip0_512_950">
<rect width="605.25" height="761.48" fill="white"/>
</clipPath>
</defs>
</svg>
